<?xml version="1.0" encoding="UTF-8"?>
<!DOCTYPE svg PUBLIC "-//W3C//DTD SVG 1.1//EN" "http://www.w3.org/Graphics/SVG/1.1/DTD/svg11.dtd">
<!-- Creator: CorelDRAW (Zkušební verze) -->
<svg xmlns="http://www.w3.org/2000/svg" xml:space="preserve" width="80mm" height="80mm" version="1.1" style="shape-rendering:geometricPrecision; text-rendering:geometricPrecision; image-rendering:optimizeQuality; fill-rule:evenodd; clip-rule:evenodd"
viewBox="0 0 8000 8000"
 xmlns:xlink="http://www.w3.org/1999/xlink"
 xmlns:xodm="http://www.corel.com/coreldraw/odm/2003">
 <defs>
  <style type="text/css">
   <![CDATA[
    .fil3 {fill:#FEFEFE}
    .fil0 {fill:#434242}
    .fil2 {fill:#E31E24}
    .fil1 {fill:#008DD2}
    .fil5 {fill:#FEFEFE;fill-rule:nonzero}
    .fil4 {fill:#434242;fill-rule:nonzero}
   ]]>
  </style>
 </defs>
 <g id="Vrstva_x0020_1">
  <metadata id="CorelCorpID_0Corel-Layer"/>
  <path class="fil0" d="M4043.94 564.79c-1125.65,205.93 -2109.28,716.91 -2725.67,1453.91 -115.16,654.4 -136.29,1310.34 34.8,2047.67 -236.96,38.43 -442.73,54.48 -679.69,92.89 151.39,549.91 302.77,1099.82 454.17,1649.74 363.39,60.3 726.8,95 1090.19,155.31 428.64,692.01 1108.54,1208.41 1845.73,1551.18 601.06,-283.86 1461.61,-992.34 1833.02,-1580.12 372.91,-61.68 720.22,-97.73 1093.14,-159.41 146.45,-554.5 292.9,-1111.49 439.39,-1665.85l-668.44 -79.56c110.83,-571.25 158.84,-1229.46 55.54,-2015.61 -824.15,-912.14 -1803.09,-1269.8 -2772.18,-1450.15zm14.26 6729.43c-347.88,-132.49 -665.9,-308.37 -916.68,-533.56 590.07,1.96 1196.57,-3.09 1786.63,-1.15 -241.39,210.46 -539.69,384.79 -869.95,534.71z"/>
  <path class="fil1" d="M1599.1 4447.71c552.23,0 1104.46,0 1656.68,0 -383.94,-785.63 -538.96,-1885.81 -303.55,-3396.65 -396.75,141.29 -1040.71,531.91 -1483.81,1026.91 -127.44,777.88 -114.38,1538.01 130.68,2369.74z"/>
  <path class="fil2" d="M6541.05 4459.01c-553.24,0 -1106.49,0 -1659.73,0 384.65,-793.43 549.3,-1870.06 313.46,-3395.95 423.5,173.33 988.7,498.09 1471.37,991.97 96.95,805.86 58.08,1587.02 -125.1,2403.98z"/>
  <polygon class="fil3" points="839.73,4265.82 7246.75,4265.82 6888.73,5672.97 1197.75,5672.97 "/>
  <path class="fil4" d="M1506 4669.94l0 479.84c0,25.36 2.7,43.27 8.09,53.56 5.4,10.44 14.38,15.52 27.23,15.52 25.29,0 44.16,-21.34 56.48,-64.16 12.21,-42.82 18.37,-108.02 18.37,-195.46 0,-109.81 -7.19,-185.74 -21.57,-227.52 -14.51,-41.79 -39.43,-62.67 -74.73,-62.67 -3.98,0 -6.93,0 -8.6,0.14 -1.8,0.16 -3.6,0.46 -5.27,0.75zm-168.19 594.42l0 -45.5c15.79,-1.19 26.71,-5.82 32.74,-14.17 6.04,-8.35 8.99,-23.13 8.99,-44.31l0 -433.3c0,-24.16 -2.83,-39.69 -8.47,-46.54 -5.65,-6.73 -16.56,-10.6 -32.87,-11.49l-0.39 -44.62 163.32 0c83.71,0 146.62,28.06 188.73,84.31 42.11,56.24 63.29,140.39 63.29,252.3 0,100.56 -19.64,176.21 -58.8,227.09 -39.02,50.87 -97.45,76.23 -175.25,76.23l-181.29 0zm507.34 -290.19l85.77 0 -45.57 -209.49 -40.2 209.49zm-118.5 290.19l0 -43.7c19.52,-4.04 35.3,-36.86 47.37,-98.33 0.78,-4.34 1.42,-7.77 1.93,-10.15l87.94 -441.49 -10.13 -46.26 120.05 0 104.89 495.66c1.03,4.62 2.44,11.19 4.11,19.7 11.04,52.81 26.57,79.67 46.73,80.87l0 43.7 -199.39 0 0 -43.7c11.82,-1.8 20.67,-7.47 26.58,-17.32 5.78,-9.7 8.72,-23.27 8.72,-40.87 0,-6.71 -0.38,-13.89 -1.27,-21.8 -0.9,-7.91 -2.19,-17 -3.98,-27.59l-17.21 -83.4 -109.9 0 -16.95 83.84c-1.16,7.01 -2.19,14.19 -2.96,21.48 -0.77,7.33 -1.15,14.49 -1.15,21.8 0,18.94 3.33,33.7 10.14,44.46 6.8,10.58 16.82,17 30.17,19.4l0 43.7 -125.69 0zm402.06 0l0 -43.7c17.58,-2.1 29.53,-8.65 35.95,-19.7 6.42,-11.05 9.5,-34.91 9.5,-71.62l0 -375.99c0,-26.27 -3.34,-45.66 -10.27,-58.5 -6.93,-12.83 -18.62,-22.08 -35.18,-27.6l0 -42.82 138.79 0 178.72 347.94 0 -219.02c0,-31.49 -3.98,-52.97 -11.68,-64.45 -7.83,-11.5 -22.08,-18.67 -42.89,-21.65l0 -42.82 142.52 0 0 43.72c-17.59,1.79 -29.53,8.36 -35.95,19.69 -6.29,11.35 -9.5,35.52 -9.5,72.51l0 504.01 -37.23 0 -234.7 -464.61 0 335.71c0,28.79 4.23,49.99 12.71,63.4 8.6,13.29 22.72,20.9 42.5,22.68l0 42.82 -143.29 0zm731.9 -195l47.76 0 0 161.73c-19.77,14.92 -41.6,26.27 -65.48,34.17 -23.75,7.91 -48.66,11.78 -74.47,11.78 -68.94,0 -121.58,-28.63 -157.79,-86.07 -36.21,-57.45 -54.31,-140.71 -54.31,-249.64 0,-105.17 19,-186.64 57.01,-244.08 37.86,-57.59 91.41,-86.4 160.36,-86.4 22.6,0 44.55,4.19 65.86,12.54 21.32,8.2 43.01,21.19 65.1,38.65l0 143.83 -46.35 0c-6.68,-48.2 -17.34,-84.31 -31.97,-108.48 -14.51,-24.16 -32.87,-36.25 -54.96,-36.25 -27.99,0 -48.02,21.18 -59.95,63.56 -11.94,42.38 -17.85,115.48 -17.85,219.33 0,103.99 6.3,177.1 18.87,219.32 12.46,42.24 33.38,63.43 62.78,63.43 21.32,0 38.78,-12.53 52.39,-37.75 13.74,-25.22 24.65,-65.06 33,-119.67zm63.88 195l0 -43.7c15.79,-1.8 26.71,-6.88 32.73,-15.53 6.04,-8.65 8.99,-23.57 8.99,-44.75l0 -433.3c0,-24.16 -2.82,-39.83 -8.47,-47 -5.65,-7.01 -16.69,-11.48 -33.25,-13.27l0 -42.38 337.41 0 0 143.83 -51.49 0c-10,-33.27 -23.49,-57.28 -40.44,-72.35 -16.95,-15.09 -39.41,-22.54 -67.53,-22.54l-9.75 0 0 233.07 6.02 0c20.3,0 36.34,-6.88 48.28,-20.45 11.94,-13.43 20.29,-34.61 25.03,-63.12l45.46 0 0 217.7 -45.46 0c-2.05,-29.4 -9.11,-51.34 -21.44,-65.51 -12.32,-14.32 -30.04,-21.49 -53.41,-21.49l-4.48 0 0 190.1c0,26.55 2.82,45.06 8.6,55.49 5.77,10.61 15.66,15.83 29.78,15.83 18.23,0 34.79,-9.86 49.43,-29.7 14.63,-19.84 28.24,-50.43 40.83,-91.92l51.48 0 -10.91 170.99 -337.41 0zm723.68 -293.77l0 189.79c0,21.48 2.95,36.54 8.86,44.91 5.9,8.49 16.69,13.57 32.48,15.37l0 43.7 -208 0 0 -43.7c15.8,-1.8 26.71,-6.88 32.75,-15.53 6.03,-8.65 8.98,-23.57 8.98,-44.75l0 -433.3c0,-24.16 -2.82,-39.83 -8.47,-47 -5.65,-7.01 -16.69,-11.48 -33.26,-13.27l0 -42.38 212.88 0c52.9,0 94.63,15.07 125.06,45.06 30.55,30 45.7,71.02 45.7,123.25 0,37.9 -7.58,68.93 -22.73,93.25 -15.14,24.32 -38.64,43.13 -70.48,56.25 9.24,10.75 18.49,27.01 27.85,48.63 9.25,21.8 21.58,56.41 36.86,103.85 2.44,7.61 5.77,18.06 9.76,31.49 18.1,57.75 36.08,89.22 54.17,94.45l0 43.7 -128.64 0c-19.77,-40.28 -42.62,-104.73 -68.43,-193.66 -8.09,-27.59 -14.26,-48.5 -18.49,-62.52 -4.75,-14.47 -9.64,-24.46 -14.63,-29.68 -5.01,-5.23 -11.69,-7.91 -19.91,-7.91l-2.31 0zm0 -303.34l0 258.72 6.81 0c30.56,0 51.87,-9.09 63.68,-27.45 11.94,-18.35 17.84,-52.51 17.84,-102.35 0,-49.53 -6.03,-83.4 -18.36,-101.6 -12.33,-18.22 -34.15,-27.32 -65.47,-27.32l-4.5 0zm330.93 597.11l0 -43.7c15.8,-1.8 26.71,-6.88 32.74,-15.53 5.91,-8.65 8.99,-23.57 8.99,-44.75l0 -144.73 -80.89 -273.2c-7.57,-24.76 -14.89,-42.67 -22.21,-53.72 -7.31,-11.18 -16.04,-18.2 -26.32,-21.48l0 -42.82 202.73 0 0 42.82c-10.53,3.44 -18.11,8.36 -22.98,14.47 -4.75,6.12 -7.06,14.03 -7.06,24.04 0,4.61 0.52,9.83 1.41,15.5 1.03,5.68 2.57,12.09 4.62,19.41l52.26 195.89 54.95 -180.97c2.18,-7.61 3.86,-14.78 5.01,-21.49 1.16,-6.72 1.67,-13.57 1.67,-20.44 0,-11.2 -3.21,-20.75 -9.51,-28.94 -6.41,-8.07 -15.53,-14.03 -27.34,-17.47l0 -42.82 130.19 0 0 42.82c-12.33,7.91 -22.73,19.41 -31.46,34.48 -8.6,15.2 -17.97,39.24 -27.99,72.2l-69.97 230.83 0 155.62c0,21.48 2.95,36.54 8.86,44.91 5.91,8.49 16.82,13.57 32.87,15.37l0 43.7 -210.57 0zm464.85 -594.42l0 479.84c0,25.36 2.69,43.27 8.09,53.56 5.4,10.44 14.38,15.52 27.22,15.52 25.29,0 44.17,-21.34 56.49,-64.16 12.2,-42.82 18.36,-108.02 18.36,-195.46 0,-109.81 -7.19,-185.74 -21.57,-227.52 -14.51,-41.79 -39.42,-62.67 -74.72,-62.67 -3.99,0 -6.93,0 -8.6,0.14 -1.8,0.16 -3.61,0.46 -5.27,0.75zm-168.2 594.42l0 -45.5c15.8,-1.19 26.71,-5.82 32.75,-14.17 6.03,-8.35 8.98,-23.13 8.98,-44.31l0 -433.3c0,-24.16 -2.82,-39.69 -8.47,-46.54 -5.65,-6.73 -16.56,-10.6 -32.87,-11.49l-0.39 -44.62 163.32 0c83.71,0 146.63,28.06 188.73,84.31 42.12,56.24 63.3,140.39 63.3,252.3 0,100.56 -19.64,176.21 -58.8,227.09 -39.03,50.87 -97.45,76.23 -175.25,76.23l-181.3 0zm436.99 0l0 -43.7c15.8,-1.8 26.71,-6.88 32.74,-15.53 6.03,-8.65 8.99,-23.57 8.99,-44.75l0 -433.3c0,-24.16 -2.83,-39.83 -8.47,-47 -5.66,-7.01 -16.7,-11.48 -33.26,-13.27l0 -42.38 337.41 0 0 143.83 -51.48 0c-10.01,-33.27 -23.5,-57.28 -40.45,-72.35 -16.94,-15.09 -39.41,-22.54 -67.53,-22.54l-9.75 0 0 233.07 6.02 0c20.3,0 36.34,-6.88 48.28,-20.45 11.94,-13.43 20.29,-34.61 25.04,-63.12l45.45 0 0 217.7 -45.45 0c-2.06,-29.4 -9.12,-51.34 -21.45,-65.51 -12.32,-14.32 -30.04,-21.49 -53.41,-21.49l-4.48 0 0 190.1c0,26.55 2.82,45.06 8.6,55.49 5.77,10.61 15.66,15.83 29.78,15.83 18.23,0 34.8,-9.86 49.43,-29.7 14.63,-19.84 28.24,-50.43 40.83,-91.92l51.49 0 -10.92 170.99 -337.41 0zm536.36 -293.77l0 189.79c0,21.48 2.95,36.54 8.86,44.91 5.9,8.49 16.68,13.57 32.48,15.37l0 43.7 -208 0 0 -43.7c15.8,-1.8 26.71,-6.88 32.75,-15.53 6.03,-8.65 8.98,-23.57 8.98,-44.75l0 -433.3c0,-24.16 -2.82,-39.83 -8.47,-47 -5.65,-7.01 -16.69,-11.48 -33.26,-13.27l0 -42.38 212.88 0c52.9,0 94.62,15.07 125.06,45.06 30.55,30 45.7,71.02 45.7,123.25 0,37.9 -7.58,68.93 -22.73,93.25 -15.14,24.32 -38.64,43.13 -70.48,56.25 9.24,10.75 18.49,27.01 27.85,48.63 9.25,21.8 21.58,56.41 36.85,103.85 2.45,7.61 5.78,18.06 9.77,31.49 18.1,57.75 36.08,89.22 54.17,94.45l0 43.7 -128.64 0c-19.78,-40.28 -42.63,-104.73 -68.44,-193.66 -8.08,-27.59 -14.25,-48.5 -18.49,-62.52 -4.74,-14.47 -9.63,-24.46 -14.63,-29.68 -5.01,-5.23 -11.69,-7.91 -19.91,-7.91l-2.3 0zm0 -303.34l0 258.72 6.8 0c30.56,0 51.87,-9.09 63.69,-27.45 11.94,-18.35 17.84,-52.51 17.84,-102.35 0,-49.53 -6.04,-83.4 -18.36,-101.6 -12.33,-18.22 -34.15,-27.32 -65.47,-27.32l-4.5 0zm757.83 402.11l47.77 0 0 161.73c-19.78,14.92 -41.6,26.27 -65.48,34.17 -23.75,7.91 -48.67,11.78 -74.47,11.78 -68.95,0 -121.59,-28.63 -157.79,-86.07 -36.22,-57.45 -54.31,-140.71 -54.31,-249.64 0,-105.17 19,-186.64 57,-244.08 37.87,-57.59 91.42,-86.4 160.36,-86.4 22.6,0 44.55,4.19 65.87,12.54 21.31,8.2 43.01,21.19 65.09,38.65l0 143.83 -46.34 0c-6.69,-48.2 -17.34,-84.31 -31.98,-108.48 -14.5,-24.16 -32.87,-36.25 -54.95,-36.25 -27.99,0 -48.01,21.18 -59.95,63.56 -11.95,42.38 -17.85,115.48 -17.85,219.33 0,103.99 6.29,177.1 18.87,219.32 12.45,42.24 33.38,63.43 62.78,63.43 21.31,0 38.77,-12.53 52.39,-37.75 13.73,-25.22 24.65,-65.06 32.99,-119.67zm63.88 -444.93l210.31 0 0 42.82c-16.82,1.8 -27.99,6.28 -33.64,13.29 -5.65,7.15 -8.47,22.68 -8.47,46.54l0 372.57c0,43.56 5.13,74.31 15.54,91.91 10.39,17.61 28.11,26.4 52.89,26.4 26.07,0 44.42,-9.09 54.95,-27.29 10.53,-18.21 15.79,-52.08 15.79,-101.61l0 -350.03c0,-25.37 -3.21,-42.98 -9.5,-52.83 -6.16,-9.69 -17.85,-15.97 -34.92,-18.95l0 -42.82 130.96 0 0 42.38c-17.07,2.38 -28.76,8.06 -34.8,17.31 -6.16,9.09 -9.24,26.86 -9.24,53.1l0 351.84c0,68.78 -12.07,117.28 -36.2,145.63 -24.01,28.19 -64.59,42.35 -121.85,42.35 -52.64,0 -90.77,-14.16 -114.53,-42.66 -23.62,-28.35 -35.56,-74.16 -35.56,-137.42l0 -369.88c0,-24.16 -2.83,-39.83 -8.47,-47 -5.65,-7.01 -16.69,-11.48 -33.26,-13.27l0 -42.38zm410.67 639.93l0 -43.7c15.79,-1.8 26.71,-6.88 32.73,-15.53 6.04,-8.65 8.99,-23.57 8.99,-44.75l0 -433.3c0,-24.16 -2.83,-39.83 -8.47,-47 -5.65,-7.01 -16.69,-11.48 -33.25,-13.27l0 -42.38 195.67 0c60.09,0 105.54,15.23 136.09,45.96 30.55,30.59 45.96,75.95 45.96,136.37 0,55.95 -13.6,99.68 -40.82,131.14 -27.23,31.35 -64.84,47.16 -112.74,47.16 -12.19,0 -21.57,-2.54 -27.98,-7.45 -6.42,-4.94 -9.63,-12.09 -9.63,-21.34 0,-9.7 5.52,-16.87 16.43,-21.64 10.92,-4.92 17.46,-8.36 19.77,-10.29 9.24,-8.81 15.67,-20.44 19.26,-34.77 3.73,-14.47 5.52,-42.38 5.52,-83.7 0,-48.64 -6.16,-84.01 -18.48,-105.78 -12.2,-21.95 -32.1,-32.84 -59.45,-32.84l-1.41 0 0 493.13c0,21.18 2.95,36.1 8.99,44.75 6.03,8.65 17.08,13.73 33.12,15.53l0 43.7 -210.3 0z"/>
  <path class="fil3" d="M4058.21 7294.22c-347.89,-132.49 -665.9,-308.37 -916.69,-533.56 590.06,1.96 1196.58,-3.1 1786.63,-1.16 -241.39,210.47 -539.68,384.8 -869.94,534.72z"/>
  <polygon class="fil2" points="1677.87,5669.54 6468.58,5669.54 6100.75,6897.73 2116.54,6897.73 "/>
  <path class="fil5" d="M3061.52 6526.21l0 -36.14c15.16,-1.47 25.64,-5.67 31.44,-12.82 5.79,-7.15 8.63,-19.48 8.63,-37l0 -358.1c0,-19.97 -2.71,-32.91 -8.14,-38.84 -5.43,-5.79 -16.03,-9.49 -31.93,-10.98l0 -35.02 201.99 0 0 35.38c-16.16,1.5 -26.89,5.19 -32.31,10.99 -5.43,5.92 -8.14,18.75 -8.14,38.47l0 354.4c0,17.4 2.34,29.85 7.03,37.49 4.68,7.52 12.45,11.36 23.3,11.36 14.68,0 28.98,-8.4 42.92,-25.16 14.06,-16.66 27.74,-42.31 41.19,-76.72l52.03 0 -17.26 142.69 -310.75 0zm547.95 -239.84l82.38 0 -43.78 -173.14 -38.6 173.14zm-113.81 239.84l0 -36.14c18.74,-3.33 33.91,-30.46 45.5,-81.26 0.74,-3.58 1.35,-6.42 1.85,-8.38l84.47 -364.9 -9.74 -38.22 115.3 0 100.74 409.66c0.99,3.81 2.35,9.24 3.95,16.27 10.61,43.66 25.53,65.85 44.89,66.83l0 36.14 -191.51 0 0 -36.14c11.34,-1.47 19.86,-6.17 25.52,-14.29 5.55,-8.03 8.39,-19.24 8.39,-33.79 0,-5.56 -0.37,-11.48 -1.23,-18.02 -0.87,-6.53 -2.09,-14.05 -3.82,-22.8l-16.53 -68.94 -105.56 0 -16.27 69.3c-1.11,5.8 -2.1,11.73 -2.84,17.77 -0.74,6.04 -1.11,11.96 -1.11,17.99 0,15.66 3.21,27.88 9.74,36.75 6.54,8.77 16.16,14.07 28.98,16.03l0 36.14 -120.72 0zm520.46 0l0 -36.14c15.16,-1.47 25.77,-5.79 31.81,-13.19 6.05,-7.27 9,-19.85 9,-37.37l0 -401.74c-17.38,0 -31.19,5.91 -41.67,17.86 -10.49,11.97 -18.38,30.71 -23.68,56.23l-42.67 0 0 -114.55 337.39 0 0 114.55 -42.92 0c-5.54,-25.52 -13.55,-44.26 -23.92,-56.23 -10.36,-11.95 -23.55,-17.86 -39.7,-17.86l-1.49 0 0 401.74c0,17.77 2.97,30.34 8.76,37.61 5.8,7.16 16.03,11.48 31.08,12.95l0 36.14 -201.99 0zm382.35 0l0 -36.14c15.16,-1.47 25.64,-5.67 31.44,-12.82 5.79,-7.15 8.63,-19.48 8.63,-37l0 -358.1c0,-19.97 -2.71,-32.91 -8.14,-38.84 -5.42,-5.79 -16.02,-9.49 -31.93,-10.98l0 -35.02 201.99 0 0 35.38c-16.16,1.5 -26.89,5.19 -32.31,10.99 -5.43,5.92 -8.14,18.75 -8.14,38.47l0 358.1c0,17.52 2.84,29.85 8.63,37 5.8,7.15 16.4,11.35 31.82,12.82l0 36.14 -201.99 0zm324.27 0l0 -36.14c16.89,-1.72 28.35,-7.15 34.52,-16.27 6.16,-9.13 9.13,-28.85 9.13,-59.2l0 -310.74c0,-21.71 -3.21,-37.74 -9.87,-48.35 -6.65,-10.61 -17.87,-18.24 -33.78,-22.82l0 -35.38 133.3 0 171.65 287.57 0 -181.02c0,-26.02 -3.82,-43.78 -11.22,-53.27 -7.52,-9.5 -21.21,-15.42 -41.19,-17.9l0 -35.38 136.88 0 0 36.14c-16.89,1.47 -28.36,6.91 -34.53,16.27 -6.04,9.37 -9.12,29.35 -9.12,59.94l0 416.55 -35.76 0 -225.42 -384 0 277.45c0,23.8 4.07,41.31 12.21,52.41 8.26,10.98 21.83,17.27 40.81,18.74l0 35.4 -137.61 0z"/>
  <path class="fil3" d="M3936.76 2822.48l52.6 4.5 -23.02 -45.88 192.56 -0.38c10.47,-3.88 4.59,2.26 9.07,-7.56 22.29,-65.6 63.26,-69.79 67.33,-221.44l-76.37 3.52c-10.99,9.34 -14.36,22.38 -32.3,25.28 -29.91,4.84 -38.15,-35.32 -96.53,-18.98 -61.64,17.25 -16.35,34.87 -59.06,4.89 -6.53,-4.58 -16.25,-8.28 -21.18,-11.38 -0.53,-0.58 -13.22,-37.24 -13.65,-56.16 26.95,-0.86 39.64,10.77 65.6,-2.42 -14.53,0.64 -21.66,-24.99 -45.33,-23.84 -27.3,1.33 -45.04,7.1 -78.98,3.1 12.63,31.94 25.78,160.31 54.14,237.13 9.66,26.17 19.79,47.58 27.7,70.2 -88.34,0 -108.09,20.1 -180.6,-60.95 -31.73,-35.46 -39.95,-35.57 -66.61,-97.68 -23.62,-55.07 -29.96,-127.55 -48.99,-171.5 -19.42,-44.84 -119.13,-62.52 -160.67,-47.6 12.49,24 24.83,38.52 37.17,63.86 24.03,49.34 51.06,117.66 88.3,160.26 12.94,14.81 13.64,11.83 21.89,29.15l-59.41 -2.29c-4.52,-51.95 -36.22,-99.12 -86.7,-82.88l-7.23 -12.22c-1.8,-3.78 -3.39,-9.11 -5.35,-13.47 -36.57,-4.95 -19.23,21.3 -115.82,-29.39 -76.41,-40.1 -161.22,-134.74 -174.31,-234.15 -5.57,-42.22 11.14,-38.47 9.31,-77.88 19.25,-1.16 33.8,-6.62 43.33,-17.8 11.68,-13.68 12.82,-33.27 19.63,-47.64 9.31,-0.42 86.89,-7.81 87.77,-1.48 0.29,2.07 1.49,2.85 1.87,3.72l7.34 23.24c9.06,58.56 10.86,30.08 13.15,49.03 3.4,28.16 -18.74,59.12 51.66,101.99 33.81,20.57 16.57,21.24 37.39,50.73 19.67,-45.02 25.56,-135.95 -0.51,-178.03 -1.59,21.18 -6.02,21.05 -6.7,37.26 -0.73,17.59 4.38,15.18 -2.03,36.91 -22.07,9.71 -36.22,7 -49.1,-9.92 -0.05,-35.45 2.63,-11.57 20.25,-38.14 -0.26,-23.86 -3.32,-15.01 -8.23,-36.15 -20.04,-86.18 22.61,-100.82 -125.86,-103.89 -66.93,-1.38 -40.82,-12.62 -59.6,-36.46 -30.51,3.44 -28.43,39.55 -17.91,66.6 -18.54,11.53 -18.13,19.22 -16.56,51.46 -34.28,0.71 -51.32,-14.89 -61.85,29.69 -17.79,75.28 30.76,199.75 72.36,252.83 58.82,75.01 137.29,130.94 250.86,158.17l4.2 12.74c3.57,11.97 5.24,27.88 21.4,33.07 21.52,6.9 19.68,-16.43 27.29,-33.43 23.27,-2.78 32.97,2.91 39.29,26.37 -8.43,16.63 -29.59,25.03 -16.2,52.94 14.04,29.31 72.55,16.07 104.27,37.12 18.39,12.21 16.9,27.73 34.73,33.66 17.58,-18.03 16.61,-33.3 8.32,-63.38 63.21,57.93 164.21,104.92 245.88,124.95zm-465.2 -639.06l94.71 -0.63c42.23,-5.42 121.23,2.94 167.9,4.23 55.22,1.52 112.02,2.77 167.18,1.01l329.97 -6.65c5.96,-1.69 4.46,0.91 10.09,-12.86l7.86 -30.79c88.32,0 259.9,10.95 338.64,-5.44 -16.38,-58.2 -76.27,-29.64 -167.29,-68.16 -42.43,-17.96 -85.6,-40.65 -109.55,-69.98l1.88 -19.35c-84.04,0 -164.86,-0.27 -248.93,4.72 -42.48,2.53 -83.95,4.79 -126.52,3.24 -32.58,-1.2 -93.5,-9.76 -121.69,-5.31l1.82 17.54c-50.78,53.53 -134.57,82.37 -207.39,97.67 -49.17,10.34 -47.56,-10.44 -69.15,38.22l-87.69 0.37c0.75,14.29 12.66,40.33 18.16,52.17zm94.71 -0.63l0 28.57c-2.48,1.96 -6.82,7.82 -9.02,10.16l624.9 3.52 0 37.92c-44.59,1.68 -44.32,31.57 -68.43,62.46 -21.91,-9.35 -34.1,-4.22 -55.56,3.12 -6.7,-13.08 -17.76,-29.01 -33.09,-35.89 -20.2,-9.07 -24.73,-3.2 -35.73,10.36 -5.28,6.52 1.94,1.38 -6.76,8.34 -7.91,-19.83 -15.41,-39.72 -31.52,-47.71 -21.5,-10.66 -36.11,-0.23 -45.51,16.07 4.73,18.4 -0.91,0.97 9.5,10.76 3.19,2.99 16.32,3.68 9.92,26.12 -1.01,0.54 -2.53,0.86 -3.2,1l-6.39 1.44c-56.31,8.18 -11.04,14.38 -63.55,14.14 -83.63,-0.37 -211.52,-4.71 -285.56,-0.6l0 35.86 179.65 -0.96c8.43,-18.08 55.68,-2 77.85,-2.42l0 87.61c16.42,1.23 46,5.18 61.29,-2.68 28.52,-14.67 10.88,-37.48 6.92,-59.41 45.45,-16.28 55.53,33.72 89.96,48.45 45.53,19.5 78.03,-10.1 83.99,-56.3 17.65,33.17 11.15,70.1 29.71,83.32 17.54,-9.62 3.06,0.9 14.68,-16.8 24.24,-36.89 32.4,-24.2 63.08,-17.85l0 -158.74c12.42,1.86 22.85,12.51 29.57,18.87 14.4,13.61 13.1,19.52 5.66,45.34l151.04 -3.87 63.51 -0.06 0 -111.75 -178.26 -3.98 -0.24 -30.99 411.58 -7.29 20.71 -47.21 -89.06 0.58c-78.74,16.39 -250.32,5.44 -338.64,5.44l-7.86 30.79c-5.63,13.77 -4.13,11.17 -10.09,12.86l-329.97 6.65c-55.16,1.76 -111.96,0.51 -167.18,-1.01 -46.67,-1.29 -125.67,-9.65 -167.9,-4.23zm601.7 590.37c-4.48,9.82 1.4,3.68 -9.07,7.56l-192.56 0.38 23.02 45.88 -52.6 -4.5c11.54,7.45 26.52,14.21 39.42,22.01 19.41,11.72 28.22,12.72 29.6,41.67 -10.59,7.31 -29.95,13.31 -34.69,32.44l101.94 7.74c-1.45,0.89 -3.49,-0.01 -4.5,2.28l-63.28 18.74c-3.46,49.23 -9.18,36.01 -12.58,50.92 -3.55,15.53 9.84,28.64 13.39,44.89 5.39,24.77 -6.69,17 21.28,29.27l41.52 25.2c1.13,0.62 2.82,1.39 4.17,2.19 -20.48,15.67 -64.36,9.07 -91.31,6.18 -6.54,10.7 -1.61,-0.31 -4.12,16.34 22.91,6.2 37.52,16.73 44.78,40.57 -4.89,24.68 -14.15,23.45 -30.77,36.81 0.46,21 -1.25,1.96 6.22,11.54l103.86 -1.15 6.02 74.25 37.69 2.52c0.91,-46.13 -8.13,-50.89 -10.68,-67.98l0.97 -23.71c-22.52,-7.61 -40.13,-29.45 -17.86,-53.33 8.26,-8.84 17.75,-8.84 25.66,-18.29l5.89 -14.38c2.97,-7.67 -13.75,-1.71 7.35,-9.12 12.24,-4.29 45.16,2.16 59.55,-18.01 16.73,-23.42 -2.66,-11.91 7.09,-29.54 6.62,-12 38,-11.36 5.04,-75.64 -32.79,-63.92 -52.93,-42.58 -72.75,-63.14 -27.65,-28.72 -57.64,-36.3 -3.43,-68.69 46.66,-27.87 81.39,-35.26 129.71,-53.73 72,-27.56 104.42,-58.3 156.82,-93.91 13.31,-14.47 4.17,-7.44 10.96,-16.69l28.37 -29.01c33.63,-31.41 54.94,-69.58 80.11,-117.62 12.52,-23.91 18.65,-43.74 31.78,-68.28 11.97,-22.38 24.97,-38.49 34.53,-57.47 -37,-2.22 -58.35,-4.47 -91.84,6.43 -11.88,3.87 -23.67,8.48 -37.33,13.94 -21.94,8.76 -17.32,2.86 -27.51,22.07 -32.11,60.47 -15.67,135.72 -90.98,235.44 -7.56,10.02 -17.13,21.78 -23.45,28.47 -9.47,9.99 -163.61,55.36 -185.43,58.46zm-665.5 -367.83c41.54,-14.92 141.25,2.76 160.67,47.6 19.03,43.95 25.37,116.43 48.99,171.5 26.66,62.11 34.88,62.22 66.61,97.68 72.51,81.05 92.26,60.95 180.6,60.95 -7.91,-22.62 -18.04,-44.03 -27.7,-70.2 -28.36,-76.82 -41.51,-205.19 -54.14,-237.13 -53.95,-4.16 -47.76,-7.28 -75.96,-43.07 -10.87,-13.79 -13.09,-21.39 -24.94,-34.21 -11.11,-12 -23.83,-18.66 -30.68,-30.98l-179.65 0.96 -93.81 -0.32c3.33,14.51 3.33,16.43 10.4,25.42 0.77,0.98 5.77,5.92 7.27,6.94 9.38,6.37 1.88,3.41 12.34,4.86zm659.26 74.54c-16.73,1.78 -30.3,7.59 -39.77,22.46l62.53 20.22c-7.25,15.09 -17.22,23.7 -25.56,32.69l76.37 -3.52c-4.07,151.65 -45.04,155.84 -67.33,221.44 21.82,-3.1 175.96,-48.47 185.43,-58.46 6.32,-6.69 15.89,-18.45 23.45,-28.47 75.31,-99.72 58.87,-174.97 90.98,-235.44 10.19,-19.21 5.57,-13.31 27.51,-22.07 13.66,-5.46 25.45,-10.07 37.33,-13.94 33.49,-10.9 54.84,-8.65 91.84,-6.43 12.77,-13.6 23.67,-21.51 29.8,-40.4l-271.08 -1.83c-4.3,30.68 -18.92,54.31 -32.18,68.78 -83.52,91.23 -33.33,69.58 -189.32,44.97zm494.86 -288.75c-28.98,48.46 -10.94,125.6 -2.28,176.83 21.58,-23.96 5.15,-30.35 38.63,-50.56 34.23,-20.67 52.69,-36.15 52.39,-80.01 -0.03,-4.42 -1.04,-19.47 -0.73,-21.89 2.43,-19.03 4.02,9.99 13.08,-49.17l9.27 -26.85c0.87,-6.17 78.54,1.2 87.8,1.62l4.29 12.21c9.57,29.53 12.59,50.27 58.52,53.3 -1.94,39.24 14.81,35.67 9.33,77.53 -12.97,99.02 -97.78,193.96 -174.06,234.29 -95.84,50.69 -80.24,24.62 -115.77,29.5l-12.75 25.77c-50.14,-15.49 -82.25,29.81 -86.66,83.69 -15.27,-0.52 -47.05,3.39 -59.56,-5.66l-28.37 29.01c-6.79,9.25 2.35,2.22 -10.96,16.69 -12.01,27.14 -9.3,46.74 6.69,63.48 32.47,-11.65 -4.05,-33.48 90.34,-48.86 92.92,-15.16 37.63,-63.74 32.27,-74.85 7.84,-22.9 14.9,-29.27 39.3,-26.27 7.79,17.03 5.86,40.44 27.46,33.32 20.41,-6.76 19.05,-33.04 25.64,-45.74 82.69,-18.69 136.1,-45.42 199.52,-102.34 75.31,-67.61 143.79,-204.09 124.64,-304.44 -9.17,-48.06 -26.87,-33.62 -63,-33.91 1.89,-32.05 1.76,-39.79 -16.26,-51.46 10.49,-27.17 12.97,-62.86 -17.91,-66.59 -20.43,28.49 16.69,36.92 -86.95,36.39 -121.33,-0.6 -81.66,48.5 -102.36,116.2 -3.55,11.6 -8.56,10.57 -2.54,25.32 6.92,16.94 30.91,15.11 15.01,40.76 -9.5,15.3 -32.77,11.79 -46.03,6.08 -6.39,-22.71 -1.11,-19.26 -1.9,-37.22 -0.72,-16.58 -5.21,-15.05 -6.09,-36.17zm-670.75 1197.18c9.1,12.51 9.18,35.62 11.69,53.15l29.31 220.14c-2.46,30.66 -11.72,12.5 -1.5,51.07 15.83,59.77 -21.85,66.01 -19,101.47 2.77,34.53 13.38,2.32 -0.16,43.65 -8.39,25.63 -3.55,20.99 7.06,42.16 44.73,89.24 -65.58,196.66 -133.93,210.79 36.53,-4.82 87.33,3.83 125.97,5.34 39.94,1.57 88.91,1.8 128.51,-1.99 -28.64,-58.52 -81.19,-91.72 -47.8,-234.63l40.81 -2.13c-3.87,-30.54 -13.83,-23.88 -7.71,-51.11 8.06,-35.86 3.42,-25.11 -10.44,-52.73 -28.05,-55.93 14,-57.64 -8.55,-111.14l-52.69 -5.7 -10.53 -202.85 59.25 -0.07 9.36 -100.05c-33.7,-1.33 -87.63,-7.28 -118.54,-0.82l-1.11 35.45zm-419.57 -1055.73c74.04,-4.11 201.93,0.23 285.56,0.6 52.51,0.24 7.24,-5.96 63.55,-14.14l6.39 -1.44c0.67,-0.14 2.19,-0.46 3.2,-1 6.4,-22.44 -6.73,-23.13 -9.92,-26.12 -10.41,-9.79 -4.77,7.64 -9.5,-10.76 9.4,-16.3 24.01,-26.73 45.51,-16.07 16.11,7.99 23.61,27.88 31.52,47.71 8.7,-6.96 1.48,-1.82 6.76,-8.34 11,-13.56 15.53,-19.43 35.73,-10.36 15.33,6.88 26.39,22.81 33.09,35.89 21.46,-7.34 33.65,-12.47 55.56,-3.12 24.11,-30.89 23.84,-60.78 68.43,-62.46l0 -37.92 -624.9 -3.52 -25.45 0.56c10.03,35.33 11.44,70.69 4.61,109.05l29.86 1.44zm553.03 -548.52c-26.95,8.45 -106.64,10.56 -132.23,0.3 -17.57,-6.21 -39.73,-5.56 -58.42,-1.69 -2.88,35.31 3.43,44.85 23.78,59.27 24.1,17.06 21.95,13.13 21.17,49.89 -43.37,7.45 -137.15,48.93 -157.79,85.63 28.19,-4.45 89.11,4.11 121.69,5.31 42.57,1.55 84.04,-0.71 126.52,-3.24 84.07,-4.99 164.89,-4.72 248.93,-4.72 -25.65,-47.04 -125.07,-72.28 -156.34,-89.39 -6.67,-41.63 14.73,-30.59 31.02,-50.81 11.99,-14.92 19.63,-47.21 11.5,-63.05 1.02,15.71 1.97,6.2 -4.07,14.5l-75.76 -2zm-190.65 -1.39c18.69,-3.87 40.85,-4.52 58.42,1.69 15.61,-48.14 53.28,-117.36 75.88,-168.06 18.47,-41.44 13.22,-25.2 26.87,-37.31 14.4,-12.78 9.37,-18.93 21.29,-38.37 11.79,-19.23 30.59,-58.84 41.11,-73.45 2.8,26.56 10.45,53.99 11.89,71.56 2,24.58 -5.21,48.96 -5.87,73.44 -1.01,37.29 25.39,52.63 5.12,142.42 -20.44,9.33 -36.06,5.09 -44.06,29.47l75.76 2c6.04,-8.3 5.09,1.21 4.07,-14.5 -4,-46.03 1.24,-34.43 10.89,-73.8 2.8,-11.43 3.23,-28.36 7.25,-39.8 6.04,-17.15 8.82,-6.15 16.87,-32.1 9.66,-31.21 4.63,-62.71 10.65,-86.01 6.18,-23.93 13.32,-3.8 9.16,-37.07l-60.83 -182.86c-14.44,-20.53 -28.88,-26.69 -45.71,-46.76 -32.33,-38.54 -23.35,-43.37 -34.23,-58.72 -39.39,0.64 -63.76,32 -66.96,76.91 26.7,23.47 12.65,18.94 26.27,21.18l13.49 5.99c26.04,19.16 23.58,9.71 41.47,4.35l-30.05 117.46c-10.26,41.69 -20.43,72.99 -30.52,117.38 -4.91,21.64 -76.18,186.2 -88.72,204.1 -19.26,-1.7 -35.03,-9.81 -50.17,-3.73 -2.64,6.62 -3.05,-8.29 -2.78,11.96 0.37,28.35 -1.37,6.08 3.44,12.63zm494.53 438.52l113.12 3.2c-9.75,29.56 -4.96,75.27 0.26,105.42l-113.38 3.13 -63.51 0.06 -0.08 18.98 -70.28 17.05 0 104.15c-37.57,-7.9 -46.42,-40.5 -40.28,-87.21 -21.16,16.71 -39.26,47.16 -63.31,53.11 -10.61,2.62 -7.99,0.98 -16.53,1.99 -9.1,1.08 -6.38,-0.3 -11.43,1.69l3.97 37.12c155.99,24.61 105.8,46.26 189.32,-44.97 13.26,-14.47 27.88,-38.1 32.18,-68.78l271.08 1.83c-8.66,-51.23 -26.7,-128.37 2.28,-176.83l-0.33 -12.2 -411.58 7.29 0.24 30.99 178.26 3.98zm-677.26 146.29c6.85,12.32 19.57,18.98 30.68,30.98 11.85,12.82 14.07,20.42 24.94,34.21 28.2,35.79 22.01,38.91 75.96,43.07 33.94,4 51.68,-1.77 78.98,-3.1 23.67,-1.15 30.8,24.48 45.33,23.84 -25.96,13.19 -38.65,1.56 -65.6,2.42 0.43,18.92 13.12,55.58 13.65,56.16 4.93,3.1 14.65,6.8 21.18,11.38 42.71,29.98 -2.58,12.36 59.06,-4.89 58.38,-16.34 66.62,23.82 96.53,18.98 17.94,-2.9 21.31,-15.94 32.3,-25.28 8.34,-8.99 18.31,-17.6 25.56,-32.69l-62.53 -20.22c9.47,-14.87 23.04,-20.68 39.77,-22.46l-3.97 -37.12c5.05,-1.99 2.33,-0.61 11.43,-1.69 8.54,-1.01 5.92,0.63 16.53,-1.99 24.05,-5.95 42.15,-36.4 63.31,-53.11 -6.14,46.71 2.71,79.31 40.28,87.21l0 -104.15 70.28 -17.05 0.08 -18.98 -151.04 3.87c7.44,-25.82 8.74,-31.73 -5.66,-45.34 -6.72,-6.36 -17.15,-17.01 -29.57,-18.87l0 158.74c-30.68,-6.35 -38.84,-19.04 -63.08,17.85 -11.62,17.7 2.86,7.18 -14.68,16.8 -18.56,-13.22 -12.06,-50.15 -29.71,-83.32 -5.96,46.2 -38.46,75.8 -83.99,56.3 -34.43,-14.73 -44.51,-64.73 -89.96,-48.45 3.96,21.93 21.6,44.74 -6.92,59.41 -15.29,7.86 -44.87,3.91 -61.29,2.68l0 -87.61c-22.17,0.42 -69.42,-15.66 -77.85,2.42zm133.39 1743.26c-5.49,10.3 -0.81,-3.24 -4.98,15.12 -3.2,14.11 0.53,-6.27 -1.5,9.42 -0.03,0.16 0.03,11.96 -0.06,13.7l0.39 -1.51 177.28 -0.85c52.76,-3.98 55.56,15.26 79.24,49.29 15.47,22.24 33.22,53.05 40.56,87.56l89.42 0c0.01,-19.52 0.04,-39.06 -0.01,-58.58 -0.02,-12.04 -0.63,-25.57 -0.44,-37.27 0.39,-23.77 -3.53,-17.63 6.52,-28.43 -12.33,-17.91 -5.64,-1 -9.95,-19.56l-5.33 -28.19c-2.74,-2.94 -131.11,-47.78 -144.75,-150.96 -5.73,-43.3 12.52,-56.8 21.1,-83.15l-40.81 2.13c-33.39,142.91 19.16,176.11 47.8,234.63 -39.6,3.79 -88.57,3.56 -128.51,1.99 -38.64,-1.51 -89.44,-10.16 -125.97,-5.34zm171.13 172.73l0 -136.85 -177.28 0.85 0 136 177.28 0zm-63.49 -930.61c30.91,-6.46 84.84,-0.51 118.54,0.82l-9.36 100.05 -59.25 0.07 10.53 202.85 52.69 5.7c6.63,-30.45 12.87,-128.11 24.89,-144.13 -1.9,-33.88 6.68,-69.39 11.42,-102.89 1.79,-12.61 4.06,-38.37 6.95,-50.06 4.75,-19.23 11.36,-17 22.98,-40.46 -7.55,-8.68 1.61,-2.58 -11.96,-7.29 -6.52,-2.26 -6.45,-1.73 -13.28,-1.96 -5.39,-0.18 -20.87,1.92 -27.39,2.44 -46.03,3.73 -140.45,-2.08 -152.02,6.91 9.32,18.7 8.13,21.85 25.26,27.95zm-5.23 -246.84c26.95,2.89 70.83,9.49 91.31,-6.18 -1.35,-0.8 -3.04,-1.57 -4.17,-2.19l-41.52 -25.2c-27.97,-12.27 -15.89,-4.5 -21.28,-29.27 -3.55,-16.25 -16.94,-29.36 -13.39,-44.89 3.4,-14.91 9.12,-1.69 12.58,-50.92l63.28 -18.74c1.01,-2.29 3.05,-1.39 4.5,-2.28l-101.94 -7.74c-43.04,25.43 -16.81,-12.65 -56.85,38.59 -56.84,72.74 -15.93,87.02 -11.59,92.87 8.36,11.29 -0.71,7.98 5.31,32.06 56.37,32.47 51.21,5.24 73.76,23.89zm-20.03 218.89c11.57,-8.99 105.99,-3.18 152.02,-6.91 6.52,-0.52 22,-2.62 27.39,-2.44 6.83,0.23 6.76,-0.3 13.28,1.96 13.57,4.71 4.41,-1.39 11.96,7.29 -1.42,-21.39 -7.63,-28.36 -20.94,-37.91l-37.69 -2.52 -6.02 -74.25 -103.86 1.15c-12.27,26.38 -9.78,34.08 -14.55,62.13 -4.75,27.93 1.85,4.24 -13.66,27.29 -6.25,9.3 -6.94,10.2 -7.93,24.21zm208.55 958.56c-7.34,-34.51 -25.09,-65.32 -40.56,-87.56 -23.68,-34.03 -26.48,-53.27 -79.24,-49.29l0 136.85 119.8 0zm-697.78 -1915.35l93.81 0.32 0 -35.86 -29.86 -1.44c6.83,-38.36 5.42,-73.72 -4.61,-109.05l25.45 -0.56c2.2,-2.34 6.54,-8.2 9.02,-10.16l0 -28.57 -94.71 0.63 0.39 6.66c26.07,42.08 20.18,133.01 0.51,178.03zm400.7 1915.35l0 -136 -0.39 1.51c-46.26,27.22 -111.45,76.34 -127.55,134.49l127.94 0zm550.02 -1950.53l113.38 -3.13c-5.22,-30.15 -10.01,-75.86 -0.26,-105.42l-113.12 -3.2 0 111.75zm-39.98 1950.53c-12.9,-48.05 -61.1,-90.63 -95.07,-114.51 -15.35,-10.78 -7.57,-8.06 -22.4,-9.77 -10.05,10.8 -6.13,4.66 -6.52,28.43 -0.19,11.7 0.42,25.23 0.44,37.27 0.05,19.52 0.02,39.06 0.01,58.58l123.54 0z"/>
  <path class="fil3" d="M2681.93 4054.81l-41.06 4.11c-41.5,-21.39 -91.49,-35.76 -130.2,-57.16 -41.92,-23.19 -76.39,-52.01 -135.27,-41.9 -55.82,9.58 -297.31,31.75 -342.67,10.61 20.54,-41.82 60.5,-51.37 101.39,-100.57 107.5,-129.33 20.75,-243.8 19.94,-349.34 -0.46,-59.58 27.47,-140.6 -15.39,-186.31 -34.18,57.75 -3.93,71.28 -80.08,211.96 -38.36,70.87 -67.25,119.12 -102.18,197.8 -28.18,63.49 -58.84,166 -99.75,199.83 -75.99,62.85 -50.99,-20.67 -76.11,82.3 -11.71,48.01 -67.34,63.02 -85.33,26.47 -10.44,-21.21 89.7,-287.22 100.39,-323.5 11.11,-37.76 17.96,-81.9 30.58,-120.91 23.62,-72.96 38.32,-11.74 48.41,-97.99 18.21,-155.82 73.18,-146.9 59.66,-383.81 -21.31,-14.01 -44.99,-17.21 -63.65,-36.3 44.33,-96.36 167.65,-375.55 103.85,-461.12 -39.81,-45.07 -126.96,-39.62 -194.08,-130.7 -59.51,-80.74 -38.97,-133.16 -44.77,-169.15 -6.41,-39.85 -10.88,-28.79 -5.21,-70.78 67.89,-8.82 28.5,13.22 94.89,7.11 12.26,77.75 65.92,85.73 123.27,110.23 47.96,20.51 115.9,62.37 153.48,72.09 32.85,-103.32 -44.66,-119.68 -10.39,-202.17 44.36,-67.13 169.1,-38.72 183.7,36.22 6.56,33.74 -0.53,98.98 -6.29,126.88 -8.4,40.6 -7.52,29.32 -24,49.23 -25.13,30.37 -26.87,-15.79 -17.22,63.8l119.77 -15.98c9.62,-59.57 -25.72,-40.95 4.52,-106.12 80.75,-174.06 146.02,-119.22 250.58,-52.68 23.63,143.45 -96.22,96.18 -163.24,163.05 5.06,82 215.09,257.2 174.65,364.15 -43.19,7.1 -16.95,16.47 -89.82,-51.99 -24.56,-23.09 -47.53,-50.42 -72.8,-74.6 -21.2,23.32 -48.19,51.17 -42.56,94.98l26.68 123.43c8.35,17.45 113.51,185.32 126.86,201.44 98.97,119.46 304.37,-16.79 494.29,92.97 -89.09,61.27 -105.61,-2.03 -84.25,199.69 6.88,64.97 -26.14,79 -4.2,133.9 16.57,41.47 47.97,59.15 12.86,124.89 -51.2,95.84 -124.71,42.02 -167.91,153.35 -14.02,36.12 -22.48,83.17 -39.51,113.28 -26.55,46.96 -52.23,42.53 -91.83,69.31zm-683.78 -1577.39c-110.89,6.38 -146.42,-63.39 -183.55,-119.27 63.21,5.16 167.99,94.09 183.55,119.27z"/>
  <path class="fil3" d="M6473.44 4094.41c-74.82,7.41 -24.92,-15.76 -92.36,-0.65 -133.71,29.95 -92.59,22.72 -145.86,-17.95 -84.86,-64.77 -30.61,-45.61 -67.31,-101.35 -19.5,-29.61 -18.92,-2.97 -49.41,-47.98 13.79,-60.13 80.41,-167.94 116.81,-215.09 55.26,-71.58 33.55,-171.33 30.52,-309.95 -1.93,-87.83 -9.21,-256 6.38,-336.38 12.04,-62.11 37.51,-81.17 14.67,-141.13 -12.65,-33.18 -46.71,-75.84 -72.77,-94.78 -79.17,18.24 -137.86,77.92 -282.92,84.25 -93,4.06 -25.5,-3.75 -83.32,-37.57 -144.87,-84.73 -296.56,54.63 -311.06,171.21 53.85,65.9 112.83,87.75 94.13,204.36 -13.89,86.65 24.3,171.25 67.03,246.25 48.36,84.92 42.81,78.77 106.68,131.58 105.07,86.86 -107.89,-9 94.93,99.99 61.24,32.93 106.29,0.33 127.89,39.76 -82.47,32.98 -141.87,-25.38 -204.94,-46.36 14.07,65.48 33.62,73.21 57.24,120.52 -54.35,-11.68 -40.79,-30.54 -86.22,-49.77 14.58,68.88 15.66,31.44 45.82,74.57 20.63,29.51 19.1,53.99 38.7,77.82l-34.65 -18.31c-0.97,-0.34 -5.19,-1.09 -5.98,-1.31 -0.8,-0.21 -4.06,-1.41 -6.06,-0.99 -33.08,61.45 16.21,84.67 -63.56,112.11 -17.16,-27.87 -4.23,-14.51 -8.42,-69.9 -1.51,-20 -8.41,-47.33 -18.88,-66.52 -29.14,-53.4 -93.12,-75.76 -169.76,-223.29 -23.18,-44.64 -29.79,-102.84 -52.33,-144.41 -58.46,65.38 -31.45,261.44 -12.88,341.21 16.58,71.23 25.28,34.31 58.72,78.39 -33.88,11.5 -18.96,-11.03 -72.68,12.38 -8.25,-44.89 -50.9,-121.32 -75.45,-154.32 -26.91,47.18 -17.42,17.27 -17.5,54.61 -0.16,78.43 24.46,-60.75 0.8,17.03 -0.82,2.7 -32.05,51.26 -66.21,158.03l-77.1 2.25c-0.05,-133.96 96.5,-131.92 107.29,-344.23l-16.39 14.14c-10.84,11.24 -5.83,5.21 -20.15,22.49 -18.3,22.08 -11.83,20.52 -36.67,41.92 -26.88,23.17 -62.85,49.61 -97.8,56.44 8.78,-31.54 2.61,-15.07 26.92,-35.69 60.58,-51.37 177.09,-104.68 187.21,-325.97 -39.49,11.55 -63.29,58.19 -89.09,96.42 -30.23,44.79 -51.67,77.55 -78.44,118.68 -34.74,53.35 -47.01,55.55 -84.81,111.43 -46.67,69 -65.4,72.05 -132.59,24.15l118.24 -90.63c58.67,-40.72 275.42,-326.15 287.46,-372.59 11.94,-46.09 -67.84,-284.35 -86.07,-344.5 -52.31,-172.64 9.34,-201.12 111.88,-278.65 -6.62,-132.57 -72.95,-246.74 71.83,-260.33 30.93,-119.22 79.78,-149.9 32.01,-201.85 52.38,-22.58 38.4,-36.61 79.61,-75.96 2.78,1.75 7.72,0.21 8.9,4.25 2.54,8.75 33.14,1.69 31.7,40.04 -0.58,15.52 -68.23,45.09 16.52,41.49 4.73,-0.2 -7.39,6.34 -0.56,6.51 -69.3,9.82 -67.28,-8.47 -78.34,76.17l-24.86 292.11c-16.32,63.73 -12.48,70.23 5.92,129.42 55.33,-10.18 47.29,-31.23 90.18,-25.85 36.19,4.55 44.52,32.41 95.05,40.52 71.47,11.49 159.56,-11.97 210.78,-43.24 124.6,-76.02 121.3,-118.4 216.27,-150.44 65.96,-22.24 39.12,-10.92 84.63,-43.92 2.14,-90.62 -51.11,-110.69 -13.98,-254.07 25.69,-13.17 57.51,-28.83 99.71,-19.05 89.46,-2.4 73.12,160.58 86.45,66.69 7.41,-84.73 0.86,-208.08 -15.04,-284.83l-95.08 -25.34c1.15,3.03 4.07,-16.43 5.39,-14.09 23.43,-7.45 40.64,6.22 48.95,-9.61 20.4,-38.83 -24.36,-126.66 3.18,-118.66 31.2,44.53 -9.06,9.86 61.2,94.04 134.72,161.42 78.92,546.18 101.41,658.31 25.78,128.55 31.22,468.14 6.09,596.69 -17.54,89.82 -62.07,172.47 -75.99,240.41 -33.67,164.3 -3.03,424.82 -31.61,598.87z"/>
 </g>
</svg>
