<?xml version="1.0" encoding="UTF-8"?>
<!DOCTYPE svg PUBLIC "-//W3C//DTD SVG 1.1//EN" "http://www.w3.org/Graphics/SVG/1.1/DTD/svg11.dtd">
<!-- Creator: CorelDRAW (Zkušební verze) -->
<svg xmlns="http://www.w3.org/2000/svg" xml:space="preserve" width="80mm" height="80mm" version="1.1" style="shape-rendering:geometricPrecision; text-rendering:geometricPrecision; image-rendering:optimizeQuality; fill-rule:evenodd; clip-rule:evenodd"
viewBox="0 0 8000 8000"
 xmlns:xlink="http://www.w3.org/1999/xlink"
 xmlns:xodm="http://www.corel.com/coreldraw/odm/2003">
 <defs>
  <style type="text/css">
   <![CDATA[
    .fil3 {fill:#FEFEFE}
    .fil0 {fill:#434242}
    .fil2 {fill:#E31E24}
    .fil1 {fill:#008DD2}
    .fil5 {fill:#FEFEFE;fill-rule:nonzero}
    .fil4 {fill:#434242;fill-rule:nonzero}
   ]]>
  </style>
 </defs>
 <g id="Vrstva_x0020_1">
  <metadata id="CorelCorpID_0Corel-Layer"/>
  <path class="fil0" d="M4004.31 392.85c-1125.65,205.94 -2109.28,716.93 -2725.67,1453.91 -115.16,654.41 -136.29,1310.35 34.8,2047.68 -236.96,38.43 -442.73,54.47 -679.69,92.89 151.39,549.91 302.77,1099.82 454.17,1649.75 363.39,60.3 726.8,94.99 1090.19,155.31 428.64,691.99 1108.54,1208.4 1845.73,1551.17 601.06,-283.86 1461.61,-992.34 1833.02,-1580.12 372.91,-61.68 720.22,-97.73 1093.14,-159.41 146.45,-554.51 292.9,-1111.5 439.39,-1665.84l-668.44 -79.57c110.83,-571.25 158.84,-1229.46 55.54,-2015.61 -824.15,-912.13 -1803.09,-1269.8 -2772.18,-1450.16zm14.26 6741.64c-347.88,-135.52 -665.9,-315.4 -916.68,-545.72 590.07,1.99 1196.57,-3.16 1786.63,-1.17 -241.39,215.25 -539.69,393.54 -869.95,546.89z"/>
  <path class="fil1" d="M1550.4 4275.76c552.23,0 1104.46,0 1656.68,0 -383.94,-785.62 -538.96,-1885.81 -303.55,-3396.66 -396.75,141.3 -1040.71,531.93 -1483.81,1026.92 -127.44,777.87 -114.38,1538.01 130.68,2369.74z"/>
  <path class="fil2" d="M6492.35 4287.05c-553.24,0 -1106.49,0 -1659.73,0 384.65,-793.42 549.3,-1870.05 313.46,-3395.94 423.5,173.33 988.7,498.09 1471.37,991.97 96.95,805.86 58.08,1587.02 -125.1,2403.97z"/>
  <polygon class="fil3" points="800.1,4093.89 7207.12,4093.89 6849.1,5501.03 1158.12,5501.03 "/>
  <path class="fil4" d="M1466.37 4498.02l0 479.83c0,25.36 2.7,43.28 8.09,53.57 5.4,10.43 14.38,15.51 27.23,15.51 25.29,0 44.16,-21.34 56.48,-64.16 12.21,-42.82 18.37,-108.02 18.37,-195.46 0,-109.8 -7.19,-185.74 -21.57,-227.53 -14.51,-41.78 -39.43,-62.66 -74.73,-62.66 -3.98,0 -6.93,0 -8.6,0.14 -1.8,0.16 -3.6,0.46 -5.27,0.76zm-168.19 594.42l0 -45.51c15.79,-1.18 26.71,-5.82 32.74,-14.17 6.04,-8.35 8.99,-23.12 8.99,-44.32l0 -433.28c0,-24.17 -2.83,-39.7 -8.47,-46.55 -5.65,-6.72 -16.56,-10.59 -32.87,-11.49l-0.39 -44.63 163.32 0c83.71,0 146.62,28.07 188.73,84.31 42.11,56.25 63.29,140.41 63.29,252.3 0,100.57 -19.64,176.22 -58.8,227.09 -39.02,50.88 -97.45,76.25 -175.25,76.25l-181.29 0zm507.34 -290.2l85.77 0 -45.57 -209.49 -40.2 209.49zm-118.5 290.2l0 -43.71c19.52,-4.04 35.3,-36.85 47.37,-98.34 0.78,-4.33 1.42,-7.75 1.93,-10.14l87.94 -441.49 -10.13 -46.27 120.05 0 104.89 495.67c1.03,4.63 2.44,11.19 4.11,19.7 11.04,52.81 26.57,79.66 46.73,80.87l0 43.71 -199.39 0 0 -43.71c11.82,-1.8 20.67,-7.46 26.58,-17.31 5.78,-9.71 8.72,-23.28 8.72,-40.88 0,-6.71 -0.38,-13.89 -1.27,-21.8 -0.9,-7.9 -2.19,-17.01 -3.98,-27.6l-17.21 -83.39 -109.9 0 -16.95 83.84c-1.16,7.01 -2.19,14.19 -2.96,21.49 -0.77,7.32 -1.15,14.47 -1.15,21.79 0,18.93 3.33,33.7 10.14,44.45 6.8,10.59 16.82,17.01 30.17,19.41l0 43.71 -125.69 0zm402.06 0l0 -43.71c17.58,-2.1 29.53,-8.65 35.95,-19.71 6.42,-11.03 9.5,-34.9 9.5,-71.61l0 -375.99c0,-26.26 -3.34,-45.66 -10.27,-58.49 -6.93,-12.84 -18.62,-22.09 -35.18,-27.61l0 -42.83 138.79 0 178.72 347.96 0 -219.03c0,-31.49 -3.98,-52.97 -11.68,-64.46 -7.83,-11.49 -22.08,-18.65 -42.89,-21.64l0 -42.83 142.52 0 0 43.73c-17.59,1.8 -29.53,8.35 -35.95,19.7 -6.29,11.33 -9.5,35.51 -9.5,72.51l0 504.01 -37.23 0 -234.7 -464.63 0 335.71c0,28.8 4.23,50 12.71,63.42 8.6,13.28 22.72,20.88 42.5,22.68l0 42.82 -143.29 0zm731.9 -195.02l47.76 0 0 161.75c-19.77,14.91 -41.6,26.26 -65.48,34.17 -23.75,7.9 -48.66,11.77 -74.47,11.77 -68.94,0 -121.58,-28.63 -157.79,-86.07 -36.21,-57.46 -54.31,-140.71 -54.31,-249.64 0,-105.18 19,-186.64 57.01,-244.09 37.86,-57.58 91.41,-86.38 160.36,-86.38 22.6,0 44.55,4.18 65.86,12.53 21.32,8.21 43.01,21.18 65.1,38.65l0 143.82 -46.35 0c-6.68,-48.19 -17.34,-84.3 -31.97,-108.46 -14.51,-24.17 -32.87,-36.27 -54.96,-36.27 -27.99,0 -48.02,21.19 -59.95,63.56 -11.94,42.39 -17.85,115.5 -17.85,219.34 0,103.99 6.3,177.1 18.87,219.32 12.46,42.24 33.38,63.42 62.78,63.42 21.32,0 38.78,-12.52 52.39,-37.74 13.74,-25.22 24.65,-65.07 33,-119.68zm63.88 195.02l0 -43.71c15.79,-1.8 26.71,-6.88 32.73,-15.53 6.04,-8.65 8.99,-23.56 8.99,-44.76l0 -433.28c0,-24.17 -2.82,-39.84 -8.47,-47.01 -5.65,-7.01 -16.69,-11.47 -33.25,-13.27l0 -42.39 337.41 0 0 143.84 -51.49 0c-10,-33.28 -23.49,-57.29 -40.44,-72.35 -16.95,-15.08 -39.41,-22.54 -67.53,-22.54l-9.75 0 0 233.06 6.02 0c20.3,0 36.34,-6.86 48.28,-20.45 11.94,-13.42 20.29,-34.6 25.03,-63.11l45.46 0 0 217.69 -45.46 0c-2.05,-29.39 -9.11,-51.33 -21.44,-65.5 -12.32,-14.32 -30.04,-21.48 -53.41,-21.48l-4.48 0 0 190.09c0,26.55 2.82,45.06 8.6,55.5 5.77,10.6 15.66,15.81 29.78,15.81 18.23,0 34.79,-9.85 49.43,-29.69 14.63,-19.85 28.24,-50.44 40.83,-91.92l51.48 0 -10.91 171 -337.41 0zm723.68 -293.78l0 189.78c0,21.5 2.95,36.56 8.86,44.92 5.9,8.49 16.69,13.57 32.48,15.37l0 43.71 -208 0 0 -43.71c15.8,-1.8 26.71,-6.88 32.75,-15.53 6.03,-8.65 8.98,-23.56 8.98,-44.76l0 -433.28c0,-24.17 -2.82,-39.84 -8.47,-47.01 -5.65,-7.01 -16.69,-11.47 -33.26,-13.27l0 -42.39 212.88 0c52.9,0 94.63,15.08 125.06,45.06 30.55,30 45.7,71.04 45.7,123.25 0,37.91 -7.58,68.94 -22.73,93.25 -15.14,24.32 -38.64,43.13 -70.48,56.25 9.24,10.76 18.49,27.02 27.85,48.64 9.25,21.8 21.58,56.4 36.86,103.86 2.44,7.6 5.77,18.05 9.76,31.47 18.1,57.75 36.08,89.24 54.17,94.46l0 43.71 -128.64 0c-19.77,-40.28 -42.62,-104.74 -68.43,-193.67 -8.09,-27.6 -14.26,-48.5 -18.49,-62.51 -4.75,-14.48 -9.64,-24.48 -14.63,-29.69 -5.01,-5.23 -11.69,-7.91 -19.91,-7.91l-2.31 0zm0 -303.34l0 258.72 6.81 0c30.56,0 51.87,-9.09 63.68,-27.45 11.94,-18.35 17.84,-52.51 17.84,-102.35 0,-49.53 -6.03,-83.4 -18.36,-101.6 -12.33,-18.21 -34.15,-27.32 -65.47,-27.32l-4.5 0zm330.93 597.12l0 -43.71c15.8,-1.8 26.71,-6.88 32.74,-15.53 5.91,-8.65 8.99,-23.56 8.99,-44.76l0 -144.73 -80.89 -273.18c-7.57,-24.78 -14.89,-42.68 -22.21,-53.73 -7.31,-11.17 -16.04,-18.2 -26.32,-21.48l0 -42.83 202.73 0 0 42.83c-10.53,3.44 -18.11,8.36 -22.98,14.47 -4.75,6.13 -7.06,14.03 -7.06,24.04 0,4.61 0.52,9.84 1.41,15.5 1.03,5.67 2.57,12.09 4.62,19.4l52.26 195.9 54.95 -180.97c2.18,-7.61 3.86,-14.77 5.01,-21.48 1.16,-6.73 1.67,-13.59 1.67,-20.44 0,-11.21 -3.21,-20.75 -9.51,-28.95 -6.41,-8.06 -15.53,-14.03 -27.34,-17.47l0 -42.83 130.19 0 0 42.83c-12.33,7.91 -22.73,19.4 -31.46,34.47 -8.6,15.22 -17.97,39.24 -27.99,72.21l-69.97 230.83 0 155.61c0,21.5 2.95,36.56 8.86,44.92 5.91,8.49 16.82,13.57 32.87,15.37l0 43.71 -210.57 0zm464.85 -594.42l0 479.83c0,25.36 2.69,43.28 8.09,53.57 5.4,10.43 14.38,15.51 27.22,15.51 25.29,0 44.17,-21.34 56.49,-64.16 12.2,-42.82 18.36,-108.02 18.36,-195.46 0,-109.8 -7.19,-185.74 -21.57,-227.53 -14.51,-41.78 -39.42,-62.66 -74.72,-62.66 -3.99,0 -6.93,0 -8.6,0.14 -1.8,0.16 -3.61,0.46 -5.27,0.76zm-168.2 594.42l0 -45.51c15.8,-1.18 26.71,-5.82 32.75,-14.17 6.03,-8.35 8.98,-23.12 8.98,-44.32l0 -433.28c0,-24.17 -2.82,-39.7 -8.47,-46.55 -5.65,-6.72 -16.56,-10.59 -32.87,-11.49l-0.39 -44.63 163.32 0c83.71,0 146.63,28.07 188.73,84.31 42.12,56.25 63.3,140.41 63.3,252.3 0,100.57 -19.64,176.22 -58.8,227.09 -39.03,50.88 -97.45,76.25 -175.25,76.25l-181.3 0zm436.99 0l0 -43.71c15.8,-1.8 26.71,-6.88 32.74,-15.53 6.03,-8.65 8.99,-23.56 8.99,-44.76l0 -433.28c0,-24.17 -2.83,-39.84 -8.47,-47.01 -5.66,-7.01 -16.7,-11.47 -33.26,-13.27l0 -42.39 337.41 0 0 143.84 -51.48 0c-10.01,-33.28 -23.5,-57.29 -40.45,-72.35 -16.94,-15.08 -39.41,-22.54 -67.53,-22.54l-9.75 0 0 233.06 6.02 0c20.3,0 36.34,-6.86 48.28,-20.45 11.94,-13.42 20.29,-34.6 25.04,-63.11l45.45 0 0 217.69 -45.45 0c-2.06,-29.39 -9.12,-51.33 -21.45,-65.5 -12.32,-14.32 -30.04,-21.48 -53.41,-21.48l-4.48 0 0 190.09c0,26.55 2.82,45.06 8.6,55.5 5.77,10.6 15.66,15.81 29.78,15.81 18.23,0 34.8,-9.85 49.43,-29.69 14.63,-19.85 28.24,-50.44 40.83,-91.92l51.49 0 -10.92 171 -337.41 0zm536.36 -293.78l0 189.78c0,21.5 2.95,36.56 8.86,44.92 5.9,8.49 16.68,13.57 32.48,15.37l0 43.71 -208 0 0 -43.71c15.8,-1.8 26.71,-6.88 32.75,-15.53 6.03,-8.65 8.98,-23.56 8.98,-44.76l0 -433.28c0,-24.17 -2.82,-39.84 -8.47,-47.01 -5.65,-7.01 -16.69,-11.47 -33.26,-13.27l0 -42.39 212.88 0c52.9,0 94.62,15.08 125.06,45.06 30.55,30 45.7,71.04 45.7,123.25 0,37.91 -7.58,68.94 -22.73,93.25 -15.14,24.32 -38.64,43.13 -70.48,56.25 9.24,10.76 18.49,27.02 27.85,48.64 9.25,21.8 21.58,56.4 36.85,103.86 2.45,7.6 5.78,18.05 9.77,31.47 18.1,57.75 36.08,89.24 54.17,94.46l0 43.71 -128.64 0c-19.78,-40.28 -42.63,-104.74 -68.44,-193.67 -8.08,-27.6 -14.25,-48.5 -18.49,-62.51 -4.74,-14.48 -9.63,-24.48 -14.63,-29.69 -5.01,-5.23 -11.69,-7.91 -19.91,-7.91l-2.3 0zm0 -303.34l0 258.72 6.8 0c30.56,0 51.87,-9.09 63.69,-27.45 11.94,-18.35 17.84,-52.51 17.84,-102.35 0,-49.53 -6.04,-83.4 -18.36,-101.6 -12.33,-18.21 -34.15,-27.32 -65.47,-27.32l-4.5 0zm757.83 402.1l47.77 0 0 161.75c-19.78,14.91 -41.6,26.26 -65.48,34.17 -23.75,7.9 -48.67,11.77 -74.47,11.77 -68.95,0 -121.59,-28.63 -157.79,-86.07 -36.22,-57.46 -54.31,-140.71 -54.31,-249.64 0,-105.18 19,-186.64 57,-244.09 37.87,-57.58 91.42,-86.38 160.36,-86.38 22.6,0 44.55,4.18 65.87,12.53 21.31,8.21 43.01,21.18 65.09,38.65l0 143.82 -46.34 0c-6.69,-48.19 -17.34,-84.3 -31.98,-108.46 -14.5,-24.17 -32.87,-36.27 -54.95,-36.27 -27.99,0 -48.01,21.19 -59.95,63.56 -11.95,42.39 -17.85,115.5 -17.85,219.34 0,103.99 6.29,177.1 18.87,219.32 12.45,42.24 33.38,63.42 62.78,63.42 21.31,0 38.77,-12.52 52.39,-37.74 13.73,-25.22 24.65,-65.07 32.99,-119.68zm63.88 -444.93l210.31 0 0 42.83c-16.82,1.8 -27.99,6.28 -33.64,13.29 -5.65,7.15 -8.47,22.68 -8.47,46.55l0 372.56c0,43.56 5.13,74.31 15.54,91.91 10.39,17.61 28.11,26.4 52.89,26.4 26.07,0 44.42,-9.09 54.95,-27.3 10.53,-18.2 15.79,-52.07 15.79,-101.6l0 -350.03c0,-25.36 -3.21,-42.98 -9.5,-52.82 -6.16,-9.71 -17.85,-15.97 -34.92,-18.96l0 -42.83 130.96 0 0 42.39c-17.07,2.38 -28.76,8.05 -34.8,17.3 -6.16,9.1 -9.24,26.86 -9.24,53.11l0 351.84c0,68.78 -12.07,117.27 -36.2,145.63 -24.01,28.18 -64.59,42.35 -121.85,42.35 -52.64,0 -90.77,-14.17 -114.53,-42.66 -23.62,-28.36 -35.56,-74.15 -35.56,-137.41l0 -369.88c0,-24.17 -2.83,-39.84 -8.47,-47.01 -5.65,-7.01 -16.69,-11.47 -33.26,-13.27l0 -42.39zm410.67 639.95l0 -43.71c15.79,-1.8 26.71,-6.88 32.73,-15.53 6.04,-8.65 8.99,-23.56 8.99,-44.76l0 -433.28c0,-24.17 -2.83,-39.84 -8.47,-47.01 -5.65,-7.01 -16.69,-11.47 -33.25,-13.27l0 -42.39 195.67 0c60.09,0 105.54,15.24 136.09,45.97 30.55,30.59 45.96,75.95 45.96,136.37 0,55.95 -13.6,99.67 -40.82,131.15 -27.23,31.34 -64.84,47.14 -112.74,47.14 -12.19,0 -21.57,-2.53 -27.98,-7.44 -6.42,-4.94 -9.63,-12.1 -9.63,-21.35 0,-9.69 5.52,-16.86 16.43,-21.63 10.92,-4.92 17.46,-8.36 19.77,-10.3 9.24,-8.79 15.67,-20.44 19.26,-34.76 3.73,-14.47 5.52,-42.37 5.52,-83.71 0,-48.63 -6.16,-84 -18.48,-105.78 -12.2,-21.94 -32.1,-32.83 -59.45,-32.83l-1.41 0 0 493.12c0,21.2 2.95,36.11 8.99,44.76 6.03,8.65 17.08,13.73 33.12,15.53l0 43.71 -210.3 0z"/>
  <path class="fil3" d="M4018.58 7134.49c-347.89,-135.51 -665.9,-315.39 -916.69,-545.72 590.06,1.99 1196.58,-3.16 1786.63,-1.18 -241.39,215.26 -539.68,393.55 -869.94,546.9z"/>
  <polygon class="fil1" points="1638.24,5497.62 6428.95,5497.62 6061.12,6725.79 2076.91,6725.79 "/>
  <path class="fil3" d="M3888.06 2650.53l52.6 4.5 -23.02 -45.89 192.56 -0.37c10.47,-3.88 4.59,2.26 9.07,-7.56 22.29,-65.61 63.26,-69.79 67.33,-221.44l-76.37 3.52c-10.99,9.34 -14.36,22.38 -32.3,25.28 -29.91,4.84 -38.15,-35.31 -96.53,-18.98 -61.64,17.25 -16.35,34.86 -59.06,4.9 -6.53,-4.59 -16.25,-8.29 -21.18,-11.39 -0.53,-0.58 -13.22,-37.23 -13.65,-56.16 26.95,-0.85 39.64,10.77 65.6,-2.42 -14.53,0.64 -21.66,-24.98 -45.33,-23.83 -27.3,1.32 -45.04,7.09 -78.98,3.09 12.63,31.94 25.78,160.32 54.14,237.13 9.66,26.18 19.79,47.59 27.7,70.21 -88.34,0 -108.09,20.09 -180.6,-60.96 -31.73,-35.46 -39.95,-35.56 -66.61,-97.68 -23.62,-55.07 -29.96,-127.54 -48.99,-171.5 -19.42,-44.84 -119.13,-62.52 -160.67,-47.6 12.49,24.01 24.83,38.52 37.17,63.86 24.03,49.35 51.06,117.65 88.3,160.27 12.94,14.8 13.64,11.81 21.89,29.15l-59.41 -2.3c-4.52,-51.95 -36.22,-99.12 -86.7,-82.88l-7.23 -12.23c-1.8,-3.77 -3.39,-9.09 -5.35,-13.45 -36.57,-4.96 -19.23,21.29 -115.82,-29.39 -76.41,-40.11 -161.22,-134.75 -174.31,-234.16 -5.57,-42.22 11.14,-38.47 9.31,-77.88 19.25,-1.16 33.8,-6.62 43.33,-17.8 11.68,-13.68 12.82,-33.27 19.63,-47.64 9.31,-0.42 86.89,-7.81 87.77,-1.48 0.29,2.07 1.49,2.85 1.87,3.72l7.34 23.23c9.06,58.58 10.86,30.09 13.15,49.04 3.4,28.17 -18.74,59.12 51.66,101.99 33.81,20.57 16.57,21.24 37.39,50.72 19.67,-45.01 25.56,-135.95 -0.51,-178.02 -1.59,21.18 -6.02,21.06 -6.7,37.27 -0.73,17.58 4.38,15.18 -2.03,36.9 -22.07,9.71 -36.22,7 -49.1,-9.92 -0.05,-35.45 2.63,-11.56 20.25,-38.15 -0.26,-23.85 -3.32,-15 -8.23,-36.14 -20.04,-86.18 22.61,-100.82 -125.86,-103.88 -66.93,-1.39 -40.82,-12.63 -59.6,-36.47 -30.51,3.44 -28.43,39.55 -17.91,66.6 -18.54,11.54 -18.13,19.22 -16.56,51.46 -34.28,0.71 -51.32,-14.89 -61.85,29.69 -17.79,75.28 30.76,199.75 72.36,252.83 58.82,75.01 137.29,130.94 250.86,158.17l4.2 12.74c3.57,11.97 5.24,27.88 21.4,33.07 21.52,6.9 19.68,-16.43 27.29,-33.42 23.27,-2.78 32.97,2.9 39.29,26.37 -8.43,16.62 -29.59,25.02 -16.2,52.93 14.04,29.31 72.55,16.07 104.27,37.12 18.39,12.21 16.9,27.73 34.73,33.66 17.58,-18.04 16.61,-33.3 8.32,-63.38 63.21,57.92 164.21,104.91 245.88,124.95zm-465.2 -639.06l94.71 -0.63c42.23,-5.43 121.23,2.95 167.9,4.23 55.22,1.52 112.02,2.77 167.18,1.02l329.97 -6.65c5.96,-1.7 4.46,0.9 10.09,-12.87l7.86 -30.79c88.32,0 259.9,10.95 338.64,-5.44 -16.38,-58.2 -76.27,-29.64 -167.29,-68.16 -42.43,-17.96 -85.6,-40.65 -109.55,-69.98l1.88 -19.35c-84.04,0 -164.86,-0.28 -248.93,4.72 -42.48,2.54 -83.95,4.79 -126.52,3.24 -32.58,-1.2 -93.5,-9.76 -121.69,-5.31l1.82 17.55c-50.78,53.52 -134.57,82.37 -207.39,97.67 -49.17,10.33 -47.56,-10.45 -69.15,38.22l-87.69 0.36c0.75,14.29 12.66,40.33 18.16,52.17zm94.71 -0.63l0 28.57c-2.48,1.96 -6.82,7.83 -9.02,10.16l624.9 3.53 0 37.92c-44.59,1.67 -44.32,31.56 -68.43,62.45 -21.91,-9.35 -34.1,-4.22 -55.56,3.12 -6.7,-13.08 -17.76,-29.02 -33.09,-35.89 -20.2,-9.07 -24.73,-3.2 -35.73,10.36 -5.28,6.52 1.94,1.38 -6.76,8.34 -7.91,-19.83 -15.41,-39.72 -31.52,-47.71 -21.5,-10.65 -36.11,-0.23 -45.51,16.07 4.73,18.4 -0.91,0.98 9.5,10.76 3.19,2.99 16.32,3.67 9.92,26.12 -1.01,0.53 -2.53,0.86 -3.2,1l-6.39 1.44c-56.31,8.18 -11.04,14.38 -63.55,14.14 -83.63,-0.37 -211.52,-4.71 -285.56,-0.6l0 35.87 179.65 -0.97c8.43,-18.08 55.68,-1.99 77.85,-2.42l0 87.61c16.42,1.23 46,5.18 61.29,-2.68 28.52,-14.67 10.88,-37.49 6.92,-59.41 45.45,-16.28 55.53,33.71 89.96,48.45 45.53,19.49 78.03,-10.1 83.99,-56.3 17.65,33.17 11.15,70.1 29.71,83.33 17.54,-9.63 3.06,0.89 14.68,-16.81 24.24,-36.89 32.4,-24.19 63.08,-17.84l0 -158.75c12.42,1.87 22.85,12.51 29.57,18.87 14.4,13.61 13.1,19.53 5.66,45.35l151.04 -3.88 63.51 -0.05 0 -111.76 -178.26 -3.98 -0.24 -30.99 411.58 -7.29 20.71 -47.22 -89.06 0.59c-78.74,16.39 -250.32,5.44 -338.64,5.44l-7.86 30.79c-5.63,13.77 -4.13,11.17 -10.09,12.87l-329.97 6.65c-55.16,1.75 -111.96,0.5 -167.18,-1.02 -46.67,-1.28 -125.67,-9.66 -167.9,-4.23zm601.7 590.37c-4.48,9.82 1.4,3.68 -9.07,7.56l-192.56 0.37 23.02 45.89 -52.6 -4.5c11.54,7.45 26.52,14.21 39.42,22.01 19.41,11.71 28.22,12.72 29.6,41.67 -10.59,7.31 -29.95,13.32 -34.69,32.44l101.94 7.74c-1.45,0.9 -3.49,-0.01 -4.5,2.29l-63.28 18.73c-3.46,49.23 -9.18,36.01 -12.58,50.92 -3.55,15.52 9.84,28.64 13.39,44.89 5.39,24.76 -6.69,17 21.28,29.27l41.52 25.2c1.13,0.62 2.82,1.39 4.17,2.2 -20.48,15.66 -64.36,9.07 -91.31,6.17 -6.54,10.7 -1.61,-0.31 -4.12,16.34 22.91,6.2 37.52,16.73 44.78,40.57 -4.89,24.68 -14.15,23.46 -30.77,36.81 0.46,21 -1.25,1.96 6.22,11.53l103.86 -1.15 6.02 74.26 37.69 2.52c0.91,-46.13 -8.13,-50.9 -10.68,-67.98l0.97 -23.71c-22.52,-7.61 -40.13,-29.45 -17.86,-53.33 8.26,-8.84 17.75,-8.84 25.66,-18.3l5.89 -14.37c2.97,-7.67 -13.75,-1.72 7.35,-9.12 12.24,-4.29 45.16,2.16 59.55,-18.01 16.73,-23.42 -2.66,-11.91 7.09,-29.54 6.62,-12 38,-11.36 5.04,-75.64 -32.79,-63.92 -52.93,-42.57 -72.75,-63.14 -27.65,-28.72 -57.64,-36.3 -3.43,-68.69 46.66,-27.87 81.39,-35.26 129.71,-53.73 72,-27.56 104.42,-58.3 156.82,-93.91 13.31,-14.48 4.17,-7.43 10.96,-16.68l28.37 -29.02c33.63,-31.41 54.94,-69.58 80.11,-117.62 12.52,-23.9 18.65,-43.74 31.78,-68.28 11.97,-22.38 24.97,-38.49 34.53,-57.47 -37,-2.22 -58.35,-4.47 -91.84,6.43 -11.88,3.87 -23.67,8.47 -37.33,13.94 -21.94,8.76 -17.32,2.86 -27.51,22.07 -32.11,60.47 -15.67,135.72 -90.98,235.44 -7.56,10.01 -17.13,21.78 -23.45,28.46 -9.47,10 -163.61,55.37 -185.43,58.47zm-665.5 -367.83c41.54,-14.92 141.25,2.76 160.67,47.6 19.03,43.96 25.37,116.43 48.99,171.5 26.66,62.12 34.88,62.22 66.61,97.68 72.51,81.05 92.26,60.96 180.6,60.96 -7.91,-22.62 -18.04,-44.03 -27.7,-70.21 -28.36,-76.81 -41.51,-205.19 -54.14,-237.13 -53.95,-4.16 -47.76,-7.28 -75.96,-43.07 -10.87,-13.79 -13.09,-21.39 -24.94,-34.21 -11.11,-11.99 -23.83,-18.66 -30.68,-30.98l-179.65 0.97 -93.81 -0.34c3.33,14.51 3.33,16.44 10.4,25.44 0.77,0.97 5.77,5.91 7.27,6.93 9.38,6.37 1.88,3.41 12.34,4.86zm659.26 74.53c-16.73,1.79 -30.3,7.6 -39.77,22.47l62.53 20.22c-7.25,15.09 -17.22,23.7 -25.56,32.69l76.37 -3.52c-4.07,151.65 -45.04,155.83 -67.33,221.44 21.82,-3.1 175.96,-48.47 185.43,-58.47 6.32,-6.68 15.89,-18.45 23.45,-28.46 75.31,-99.72 58.87,-174.97 90.98,-235.44 10.19,-19.21 5.57,-13.31 27.51,-22.07 13.66,-5.47 25.45,-10.07 37.33,-13.94 33.49,-10.9 54.84,-8.65 91.84,-6.43 12.77,-13.6 23.67,-21.51 29.8,-40.39l-271.08 -1.84c-4.3,30.68 -18.92,54.31 -32.18,68.78 -83.52,91.22 -33.33,69.57 -189.32,44.96zm494.86 -288.74c-28.98,48.46 -10.94,125.6 -2.28,176.84 21.58,-23.97 5.15,-30.36 38.63,-50.57 34.23,-20.67 52.69,-36.15 52.39,-80 -0.03,-4.43 -1.04,-19.48 -0.73,-21.9 2.43,-19.03 4.02,9.99 13.08,-49.17l9.27 -26.85c0.87,-6.16 78.54,1.2 87.8,1.62l4.29 12.2c9.57,29.55 12.59,50.29 58.52,53.32 -1.94,39.23 14.81,35.66 9.33,77.53 -12.97,99.01 -97.78,193.95 -174.06,234.28 -95.84,50.69 -80.24,24.62 -115.77,29.5l-12.75 25.78c-50.14,-15.5 -82.25,29.81 -86.66,83.68 -15.27,-0.52 -47.05,3.4 -59.56,-5.66l-28.37 29.02c-6.79,9.25 2.35,2.2 -10.96,16.68 -12.01,27.14 -9.3,46.74 6.69,63.47 32.47,-11.64 -4.05,-33.47 90.34,-48.86 92.92,-15.14 37.63,-63.73 32.27,-74.83 7.84,-22.91 14.9,-29.27 39.3,-26.29 7.79,17.04 5.86,40.45 27.46,33.32 20.41,-6.75 19.05,-33.03 25.64,-45.73 82.69,-18.69 136.1,-45.42 199.52,-102.34 75.31,-67.61 143.79,-204.09 124.64,-304.43 -9.17,-48.07 -26.87,-33.63 -63,-33.92 1.89,-32.05 1.76,-39.79 -16.26,-51.46 10.49,-27.17 12.97,-62.86 -17.91,-66.59 -20.43,28.49 16.69,36.92 -86.95,36.4 -121.33,-0.61 -81.66,48.5 -102.36,116.19 -3.55,11.6 -8.56,10.57 -2.54,25.32 6.92,16.94 30.91,15.12 15.01,40.76 -9.5,15.3 -32.77,11.8 -46.03,6.07 -6.39,-22.7 -1.11,-19.25 -1.9,-37.21 -0.72,-16.58 -5.21,-15.05 -6.09,-36.17zm-670.75 1197.19c9.1,12.5 9.18,35.61 11.69,53.14l29.31 220.14c-2.46,30.66 -11.72,12.49 -1.5,51.07 15.83,59.76 -21.85,66.01 -19,101.47 2.77,34.53 13.38,2.31 -0.16,43.66 -8.39,25.62 -3.55,20.98 7.06,42.15 44.73,89.24 -65.58,196.66 -133.93,210.78 36.53,-4.81 87.33,3.84 125.97,5.35 39.94,1.57 88.91,1.79 128.51,-1.99 -28.64,-58.52 -81.19,-91.72 -47.8,-234.63l40.81 -2.13c-3.87,-30.54 -13.83,-23.88 -7.71,-51.11 8.06,-35.86 3.42,-25.11 -10.44,-52.73 -28.05,-55.93 14,-57.64 -8.55,-111.14l-52.69 -5.7 -10.53 -202.85 59.25 -0.08 9.36 -100.04c-33.7,-1.33 -87.63,-7.28 -118.54,-0.82l-1.11 35.46zm-419.57 -1055.74c74.04,-4.11 201.93,0.23 285.56,0.6 52.51,0.24 7.24,-5.96 63.55,-14.14l6.39 -1.44c0.67,-0.14 2.19,-0.47 3.2,-1 6.4,-22.45 -6.73,-23.13 -9.92,-26.12 -10.41,-9.78 -4.77,7.64 -9.5,-10.76 9.4,-16.3 24.01,-26.72 45.51,-16.07 16.11,7.99 23.61,27.88 31.52,47.71 8.7,-6.96 1.48,-1.82 6.76,-8.34 11,-13.56 15.53,-19.43 35.73,-10.36 15.33,6.87 26.39,22.81 33.09,35.89 21.46,-7.34 33.65,-12.47 55.56,-3.12 24.11,-30.89 23.84,-60.78 68.43,-62.45l0 -37.92 -624.9 -3.53 -25.45 0.56c10.03,35.33 11.44,70.69 4.61,109.05l29.86 1.44zm553.03 -548.51c-26.95,8.43 -106.64,10.54 -132.23,0.29 -17.57,-6.21 -39.73,-5.56 -58.42,-1.69 -2.88,35.31 3.43,44.84 23.78,59.27 24.1,17.06 21.95,13.13 21.17,49.9 -43.37,7.44 -137.15,48.92 -157.79,85.62 28.19,-4.45 89.11,4.11 121.69,5.31 42.57,1.55 84.04,-0.7 126.52,-3.24 84.07,-5 164.89,-4.72 248.93,-4.72 -25.65,-47.04 -125.07,-72.27 -156.34,-89.39 -6.67,-41.64 14.73,-30.59 31.02,-50.81 11.99,-14.92 19.63,-47.21 11.5,-63.05 1.02,15.71 1.97,6.2 -4.07,14.5l-75.76 -1.99zm-190.65 -1.4c18.69,-3.87 40.85,-4.52 58.42,1.69 15.61,-48.13 53.28,-117.36 75.88,-168.06 18.47,-41.44 13.22,-25.2 26.87,-37.31 14.4,-12.78 9.37,-18.93 21.29,-38.38 11.79,-19.23 30.59,-58.84 41.11,-73.44 2.8,26.56 10.45,53.99 11.89,71.56 2,24.58 -5.21,48.96 -5.87,73.43 -1.01,37.3 25.39,52.64 5.12,142.42 -20.44,9.35 -36.06,5.1 -44.06,29.49l75.76 1.99c6.04,-8.3 5.09,1.21 4.07,-14.5 -4,-46.03 1.24,-34.42 10.89,-73.8 2.8,-11.42 3.23,-28.36 7.25,-39.8 6.04,-17.15 8.82,-6.15 16.87,-32.1 9.66,-31.21 4.63,-62.71 10.65,-86.01 6.18,-23.93 13.32,-3.8 9.16,-37.07l-60.83 -182.86c-14.44,-20.53 -28.88,-26.69 -45.71,-46.75 -32.33,-38.55 -23.35,-43.38 -34.23,-58.73 -39.39,0.63 -63.76,32 -66.96,76.91 26.7,23.47 12.65,18.94 26.27,21.18l13.49 5.99c26.04,19.16 23.58,9.7 41.47,4.36l-30.05 117.45c-10.26,41.68 -20.43,72.99 -30.52,117.38 -4.91,21.65 -76.18,186.2 -88.72,204.1 -19.26,-1.69 -35.03,-9.81 -50.17,-3.73 -2.64,6.62 -3.05,-8.29 -2.78,11.96 0.37,28.36 -1.37,6.07 3.44,12.63zm494.53 438.52l113.12 3.21c-9.75,29.55 -4.96,75.25 0.26,105.41l-113.38 3.14 -63.51 0.05 -0.08 18.98 -70.28 17.05 0 104.15c-37.57,-7.9 -46.42,-40.5 -40.28,-87.21 -21.16,16.71 -39.26,47.15 -63.31,53.11 -10.61,2.62 -7.99,0.98 -16.53,2 -9.1,1.07 -6.38,-0.31 -11.43,1.68l3.97 37.11c155.99,24.61 105.8,46.26 189.32,-44.96 13.26,-14.47 27.88,-38.1 32.18,-68.78l271.08 1.84c-8.66,-51.24 -26.7,-128.38 2.28,-176.84l-0.33 -12.2 -411.58 7.29 0.24 30.99 178.26 3.98zm-677.26 146.29c6.85,12.32 19.57,18.99 30.68,30.98 11.85,12.82 14.07,20.42 24.94,34.21 28.2,35.79 22.01,38.91 75.96,43.07 33.94,4 51.68,-1.77 78.98,-3.09 23.67,-1.15 30.8,24.47 45.33,23.83 -25.96,13.19 -38.65,1.57 -65.6,2.42 0.43,18.93 13.12,55.58 13.65,56.16 4.93,3.1 14.65,6.8 21.18,11.39 42.71,29.96 -2.58,12.35 59.06,-4.9 58.38,-16.33 66.62,23.82 96.53,18.98 17.94,-2.9 21.31,-15.94 32.3,-25.28 8.34,-8.99 18.31,-17.6 25.56,-32.69l-62.53 -20.22c9.47,-14.87 23.04,-20.68 39.77,-22.47l-3.97 -37.11c5.05,-1.99 2.33,-0.61 11.43,-1.68 8.54,-1.02 5.92,0.62 16.53,-2 24.05,-5.96 42.15,-36.4 63.31,-53.11 -6.14,46.71 2.71,79.31 40.28,87.21l0 -104.15 70.28 -17.05 0.08 -18.98 -151.04 3.88c7.44,-25.82 8.74,-31.74 -5.66,-45.35 -6.72,-6.36 -17.15,-17 -29.57,-18.87l0 158.75c-30.68,-6.35 -38.84,-19.05 -63.08,17.84 -11.62,17.7 2.86,7.18 -14.68,16.81 -18.56,-13.23 -12.06,-50.16 -29.71,-83.33 -5.96,46.2 -38.46,75.79 -83.99,56.3 -34.43,-14.74 -44.51,-64.73 -89.96,-48.45 3.96,21.92 21.6,44.74 -6.92,59.41 -15.29,7.86 -44.87,3.91 -61.29,2.68l0 -87.61c-22.17,0.43 -69.42,-15.66 -77.85,2.42zm133.39 1743.25c-5.49,10.31 -0.81,-3.23 -4.98,15.12 -3.2,14.13 0.53,-6.26 -1.5,9.43 -0.03,0.16 0.03,11.96 -0.06,13.71l0.39 -1.51 177.28 -0.86c52.76,-3.98 55.56,15.26 79.24,49.29 15.47,22.24 33.22,53.05 40.56,87.56l89.42 0c0.01,-19.52 0.04,-39.05 -0.01,-58.58 -0.02,-12.04 -0.63,-25.57 -0.44,-37.27 0.39,-23.77 -3.53,-17.63 6.52,-28.43 -12.33,-17.92 -5.64,-1 -9.95,-19.56l-5.33 -28.19c-2.74,-2.95 -131.11,-47.78 -144.75,-150.95 -5.73,-43.31 12.52,-56.81 21.1,-83.16l-40.81 2.13c-33.39,142.91 19.16,176.11 47.8,234.63 -39.6,3.78 -88.57,3.56 -128.51,1.99 -38.64,-1.51 -89.44,-10.16 -125.97,-5.35zm171.13 172.74l0 -136.85 -177.28 0.86 0 135.99 177.28 0zm-63.49 -930.61c30.91,-6.46 84.84,-0.51 118.54,0.82l-9.36 100.04 -59.25 0.08 10.53 202.85 52.69 5.7c6.63,-30.45 12.87,-128.11 24.89,-144.13 -1.9,-33.88 6.68,-69.4 11.42,-102.89 1.79,-12.61 4.06,-38.37 6.95,-50.05 4.75,-19.23 11.36,-17.01 22.98,-40.46 -7.55,-8.69 1.61,-2.59 -11.96,-7.3 -6.52,-2.25 -6.45,-1.73 -13.28,-1.96 -5.39,-0.17 -20.87,1.92 -27.39,2.44 -46.03,3.74 -140.45,-2.08 -152.02,6.9 9.32,18.71 8.13,21.86 25.26,27.96zm-5.23 -246.84c26.95,2.9 70.83,9.49 91.31,-6.17 -1.35,-0.81 -3.04,-1.58 -4.17,-2.2l-41.52 -25.2c-27.97,-12.27 -15.89,-4.51 -21.28,-29.27 -3.55,-16.25 -16.94,-29.37 -13.39,-44.89 3.4,-14.91 9.12,-1.69 12.58,-50.92l63.28 -18.73c1.01,-2.3 3.05,-1.39 4.5,-2.29l-101.94 -7.74c-43.04,25.43 -16.81,-12.65 -56.85,38.59 -56.84,72.74 -15.93,87.02 -11.59,92.88 8.36,11.27 -0.71,7.97 5.31,32.05 56.37,32.47 51.21,5.24 73.76,23.89zm-20.03 218.88c11.57,-8.98 105.99,-3.16 152.02,-6.9 6.52,-0.52 22,-2.61 27.39,-2.44 6.83,0.23 6.76,-0.29 13.28,1.96 13.57,4.71 4.41,-1.39 11.96,7.3 -1.42,-21.4 -7.63,-28.37 -20.94,-37.92l-37.69 -2.52 -6.02 -74.26 -103.86 1.15c-12.27,26.39 -9.78,34.09 -14.55,62.14 -4.75,27.93 1.85,4.24 -13.66,27.29 -6.25,9.3 -6.94,10.2 -7.93,24.2zm208.55 958.57c-7.34,-34.51 -25.09,-65.32 -40.56,-87.56 -23.68,-34.03 -26.48,-53.27 -79.24,-49.29l0 136.85 119.8 0zm-697.78 -1915.36l93.81 0.34 0 -35.87 -29.86 -1.44c6.83,-38.36 5.42,-73.72 -4.61,-109.05l25.45 -0.56c2.2,-2.33 6.54,-8.2 9.02,-10.16l0 -28.57 -94.71 0.63 0.39 6.66c26.07,42.07 20.18,133.01 0.51,178.02zm400.7 1915.36l0 -135.99 -0.39 1.51c-46.26,27.21 -111.45,76.33 -127.55,134.48l127.94 0zm550.02 -1950.52l113.38 -3.14c-5.22,-30.16 -10.01,-75.86 -0.26,-105.41l-113.12 -3.21 0 111.76zm-39.98 1950.52c-12.9,-48.05 -61.1,-90.63 -95.07,-114.51 -15.35,-10.78 -7.57,-8.06 -22.4,-9.77 -10.05,10.8 -6.13,4.66 -6.52,28.43 -0.19,11.7 0.42,25.23 0.44,37.27 0.05,19.53 0.02,39.06 0.01,58.58l123.54 0z"/>
  <path class="fil3" d="M2633.23 3882.86l-41.06 4.11c-41.5,-21.39 -91.49,-35.77 -130.2,-57.16 -41.92,-23.19 -76.39,-52.01 -135.27,-41.89 -55.82,9.57 -297.31,31.75 -342.67,10.6 20.54,-41.82 60.5,-51.36 101.39,-100.57 107.5,-129.33 20.75,-243.8 19.94,-349.33 -0.46,-59.59 27.47,-140.6 -15.39,-186.32 -34.18,57.75 -3.93,71.28 -80.08,211.96 -38.36,70.87 -67.25,119.12 -102.18,197.8 -28.18,63.48 -58.84,165.99 -99.75,199.84 -75.99,62.84 -50.99,-20.68 -76.11,82.29 -11.71,48.01 -67.34,63.03 -85.33,26.46 -10.44,-21.2 89.7,-287.21 100.39,-323.49 11.11,-37.75 17.96,-81.9 30.58,-120.91 23.62,-72.97 38.32,-11.74 48.41,-97.99 18.21,-155.82 73.18,-146.9 59.66,-383.81 -21.31,-14.02 -44.99,-17.21 -63.65,-36.3 44.33,-96.36 167.65,-375.55 103.85,-461.12 -39.81,-45.06 -126.96,-39.62 -194.08,-130.7 -59.51,-80.74 -38.97,-133.16 -44.77,-169.15 -6.41,-39.85 -10.88,-28.79 -5.21,-70.78 67.89,-8.82 28.5,13.22 94.89,7.11 12.26,77.75 65.92,85.73 123.27,110.24 47.96,20.5 115.9,62.36 153.48,72.08 32.85,-103.33 -44.66,-119.68 -10.39,-202.17 44.36,-67.13 169.1,-38.72 183.7,36.23 6.56,33.73 -0.53,98.96 -6.29,126.88 -8.4,40.59 -7.52,29.31 -24,49.22 -25.13,30.37 -26.87,-15.78 -17.22,63.8l119.77 -15.98c9.62,-59.57 -25.72,-40.96 4.52,-106.12 80.75,-174.06 146.02,-119.23 250.58,-52.68 23.63,143.45 -96.22,96.18 -163.24,163.05 5.06,82.01 215.09,257.21 174.65,364.15 -43.19,7.1 -16.95,16.47 -89.82,-51.99 -24.56,-23.08 -47.53,-50.41 -72.8,-74.6 -21.2,23.32 -48.19,51.17 -42.56,94.98l26.68 123.42c8.35,17.46 113.51,185.33 126.86,201.44 98.97,119.47 304.37,-16.77 494.29,92.98 -89.09,61.27 -105.61,-2.03 -84.25,199.69 6.88,64.97 -26.14,79 -4.2,133.9 16.57,41.46 47.97,59.16 12.86,124.89 -51.2,95.84 -124.71,42.02 -167.91,153.35 -14.02,36.13 -22.48,83.17 -39.51,113.28 -26.55,46.96 -52.23,42.53 -91.83,69.31zm-683.78 -1577.39c-110.89,6.37 -146.42,-63.38 -183.55,-119.26 63.21,5.15 167.99,94.08 183.55,119.26z"/>
  <path class="fil3" d="M6424.74 3922.46c-74.82,7.41 -24.92,-15.76 -92.36,-0.64 -133.71,29.94 -92.59,22.71 -145.86,-17.96 -84.86,-64.77 -30.61,-45.61 -67.31,-101.35 -19.5,-29.61 -18.92,-2.97 -49.41,-47.97 13.79,-60.14 80.41,-167.94 116.81,-215.1 55.26,-71.58 33.55,-171.33 30.52,-309.95 -1.93,-87.83 -9.21,-256 6.38,-336.38 12.04,-62.1 37.51,-81.17 14.67,-141.13 -12.65,-33.18 -46.71,-75.84 -72.77,-94.78 -79.17,18.24 -137.86,77.91 -282.92,84.25 -93,4.06 -25.5,-3.75 -83.32,-37.56 -144.87,-84.74 -296.56,54.62 -311.06,171.2 53.85,65.9 112.83,87.75 94.13,204.36 -13.89,86.66 24.3,171.25 67.03,246.25 48.36,84.92 42.81,78.76 106.68,131.58 105.07,86.86 -107.89,-9 94.93,99.99 61.24,32.93 106.29,0.32 127.89,39.75 -82.47,32.99 -141.87,-25.37 -204.94,-46.35 14.07,65.48 33.62,73.2 57.24,120.53 -54.35,-11.69 -40.79,-30.55 -86.22,-49.78 14.58,68.88 15.66,31.44 45.82,74.57 20.63,29.51 19.1,53.99 38.7,77.82l-34.65 -18.31c-0.97,-0.34 -5.19,-1.08 -5.98,-1.31 -0.8,-0.21 -4.06,-1.41 -6.06,-0.98 -33.08,61.44 16.21,84.66 -63.56,112.1 -17.16,-27.87 -4.23,-14.51 -8.42,-69.9 -1.51,-20 -8.41,-47.33 -18.88,-66.51 -29.14,-53.4 -93.12,-75.77 -169.76,-223.3 -23.18,-44.65 -29.79,-102.84 -52.33,-144.41 -58.46,65.38 -31.45,261.45 -12.88,341.22 16.58,71.22 25.28,34.3 58.72,78.38 -33.88,11.5 -18.96,-11.03 -72.68,12.38 -8.25,-44.9 -50.9,-121.32 -75.45,-154.32 -26.91,47.18 -17.42,17.27 -17.5,54.61 -0.16,78.44 24.46,-60.76 0.8,17.03 -0.82,2.7 -32.05,51.26 -66.21,158.03l-77.1 2.25c-0.05,-133.96 96.5,-131.92 107.29,-344.23l-16.39 14.14c-10.84,11.24 -5.83,5.21 -20.15,22.49 -18.3,22.08 -11.83,20.52 -36.67,41.93 -26.88,23.16 -62.85,49.6 -97.8,56.43 8.78,-31.55 2.61,-15.07 26.92,-35.69 60.58,-51.38 177.09,-104.68 187.21,-325.96 -39.49,11.54 -63.29,58.18 -89.09,96.41 -30.23,44.79 -51.67,77.54 -78.44,118.68 -34.74,53.36 -47.01,55.55 -84.81,111.43 -46.67,69 -65.4,72.04 -132.59,24.14l118.24 -90.62c58.67,-40.73 275.42,-326.15 287.46,-372.59 11.94,-46.09 -67.84,-284.35 -86.07,-344.51 -52.31,-172.62 9.34,-201.1 111.88,-278.64 -6.62,-132.57 -72.95,-246.74 71.83,-260.33 30.93,-119.22 79.78,-149.91 32.01,-201.86 52.38,-22.57 38.4,-36.6 79.61,-75.96 2.78,1.75 7.72,0.22 8.9,4.26 2.54,8.74 33.14,1.69 31.7,40.05 -0.58,15.5 -68.23,45.07 16.52,41.48 4.73,-0.2 -7.39,6.34 -0.56,6.51 -69.3,9.82 -67.28,-8.48 -78.34,76.17l-24.86 292.11c-16.32,63.73 -12.48,70.22 5.92,129.42 55.33,-10.18 47.29,-31.23 90.18,-25.84 36.19,4.54 44.52,32.4 95.05,40.51 71.47,11.49 159.56,-11.97 210.78,-43.23 124.6,-76.03 121.3,-118.41 216.27,-150.45 65.96,-22.25 39.12,-10.92 84.63,-43.92 2.14,-90.62 -51.11,-110.69 -13.98,-254.07 25.69,-13.17 57.51,-28.83 99.71,-19.04 89.46,-2.41 73.12,160.57 86.45,66.68 7.41,-84.74 0.86,-208.08 -15.04,-284.82l-95.08 -25.34c1.15,3.02 4.07,-16.44 5.39,-14.09 23.43,-7.46 40.64,6.21 48.95,-9.62 20.4,-38.82 -24.36,-126.67 3.18,-118.65 31.2,44.52 -9.06,9.86 61.2,94.03 134.72,161.42 78.92,546.18 101.41,658.31 25.78,128.56 31.22,468.14 6.09,596.7 -17.54,89.81 -62.07,172.46 -75.99,240.4 -33.67,164.3 -3.03,424.82 -31.61,598.87z"/>
  <path class="fil5" d="M2274.76 6337.54l0 -134.26 47 0c11.57,43.86 24.59,76.04 39.17,96.77 14.58,20.74 31.7,31.1 51.23,31.1 14.09,0 25.42,-4.93 34.1,-14.71 8.56,-9.75 12.9,-22.77 12.9,-38.92 0,-15.3 -5.43,-32.05 -16.27,-50.01 -10.86,-17.96 -35.8,-48.34 -74.85,-90.87 -2.65,-2.91 -6.27,-6.76 -10.97,-11.69 -56.52,-60.76 -84.72,-113.18 -84.72,-157.53 0,-40.98 11.93,-73.64 36.03,-97.97 23.99,-24.36 55.57,-36.53 94.97,-36.53 22.3,0 43.75,3.75 64.24,11.32 20.49,7.49 40.98,19.17 61.47,34.96l0 123.54 -40.25 0c-11.1,-42.31 -24.11,-74.49 -39.05,-96.42 -14.95,-21.81 -31.34,-32.78 -49.3,-32.78 -12.9,0 -22.66,3.49 -29.29,10.61 -6.63,7.11 -9.87,17.35 -9.87,31.08 0,29.65 33.02,77.27 99.18,142.95 8.92,8.79 15.67,15.31 20.12,19.77 22.91,22.89 40.14,47.36 51.95,73.62 11.81,26.29 17.6,53.4 17.6,81.36 0,43.63 -12.9,77.5 -38.57,101.71 -25.79,24.23 -61.95,36.4 -108.23,36.4 -22.42,0 -44.23,-2.78 -65.32,-8.3 -21.21,-5.55 -42.3,-14 -63.27,-25.2zm453.23 23.26l0 -35.31c14.82,-1.45 25.19,-5.67 31.09,-12.91 5.91,-7.1 8.8,-19.39 8.8,-36.5l0 -392.66c-16.99,0 -30.49,5.79 -40.74,17.48 -10.24,11.68 -17.95,30.01 -23.14,54.96l-41.7 0 0 -111.97 329.75 0 0 111.97 -41.95 0c-5.42,-24.95 -13.25,-43.28 -23.38,-54.96 -10.12,-11.69 -23.02,-17.48 -38.8,-17.48l-1.45 0 0 392.66c0,17.35 2.89,29.64 8.56,36.76 5.66,6.98 15.66,11.2 30.37,12.65l0 35.31 -197.41 0zm425.99 -234.4l80.5 0 -42.78 -169.22 -37.72 169.22zm-111.24 234.4l0 -35.31c18.32,-3.25 33.15,-29.78 44.47,-79.43 0.73,-3.49 1.33,-6.26 1.81,-8.19l82.55 -356.62 -9.52 -37.36 112.69 0 98.46 400.37c0.97,3.73 2.29,9.03 3.86,15.91 10.37,42.65 24.95,64.36 43.87,65.32l0 35.31 -187.16 0 0 -35.31c11.08,-1.45 19.4,-6.04 24.94,-13.98 5.42,-7.84 8.19,-18.8 8.19,-33.02 0,-5.42 -0.35,-11.22 -1.2,-17.6 -0.84,-6.39 -2.04,-13.75 -3.73,-22.29l-16.15 -67.37 -103.17 0 -15.91 67.73c-1.08,5.65 -2.04,11.44 -2.77,17.35 -0.72,5.91 -1.08,11.69 -1.08,17.6 0,15.31 3.13,27.23 9.52,35.91 6.38,8.55 15.79,13.74 28.32,15.67l0 35.31 -117.99 0zm478.66 0l0 -35.31c16.5,-1.69 27.71,-7 33.74,-15.9 6.02,-8.93 8.92,-28.22 8.92,-57.87l0 -303.7c0,-21.2 -3.14,-36.89 -9.64,-47.24 -6.51,-10.36 -17.47,-17.84 -33.02,-22.31l0 -34.58 130.28 0 167.76 281.06 0 -176.93c0,-25.42 -3.73,-42.78 -10.97,-52.07 -7.34,-9.27 -20.73,-15.06 -40.25,-17.48l0 -34.58 133.77 0 0 35.31c-16.5,1.45 -27.71,6.76 -33.74,15.9 -5.91,9.17 -8.92,28.7 -8.92,58.59l0 407.11 -34.94 0 -220.32 -375.3 0 271.17c0,23.27 3.98,40.37 11.93,51.23 8.08,10.71 21.34,16.87 39.89,18.32l0 34.58 -134.49 0zm658.35 -480.15l0 387.59c0,20.49 2.53,34.95 7.59,43.27 5.06,8.43 13.49,12.53 25.55,12.53 23.74,0 41.46,-17.23 53.03,-51.82 11.45,-34.59 17.24,-87.26 17.24,-157.89 0,-88.69 -6.76,-150.05 -20.26,-183.79 -13.61,-33.75 -37,-50.62 -70.14,-50.62 -3.73,0 -6.51,0 -8.07,0.13 -1.69,0.11 -3.38,0.35 -4.94,0.6zm-157.88 480.15l0 -36.76c14.82,-0.96 25.06,-4.7 30.73,-11.46 5.66,-6.73 8.43,-18.67 8.43,-35.78l0 -349.98c0,-19.53 -2.65,-32.07 -7.95,-37.61 -5.31,-5.43 -15.55,-8.56 -30.86,-9.29l-0.35 -36.03 153.3 0c78.57,0 137.63,22.66 177.16,68.09 39.53,45.44 59.42,113.42 59.42,203.8 0,81.23 -18.44,142.34 -55.2,183.43 -36.64,41.11 -91.47,61.59 -164.51,61.59l-170.17 0zm577.47 -234.4l80.51 0 -42.78 -169.22 -37.73 169.22zm-111.23 234.4l0 -35.31c18.32,-3.25 33.14,-29.78 44.47,-79.43 0.72,-3.49 1.32,-6.26 1.81,-8.19l82.55 -356.62 -9.52 -37.36 112.69 0 98.46 400.37c0.96,3.73 2.29,9.03 3.85,15.91 10.37,42.65 24.95,64.36 43.88,65.32l0 35.31 -187.17 0 0 -35.31c11.09,-1.45 19.41,-6.04 24.95,-13.98 5.42,-7.84 8.19,-18.8 8.19,-33.02 0,-5.42 -0.36,-11.22 -1.2,-17.6 -0.85,-6.39 -2.05,-13.75 -3.74,-22.29l-16.15 -67.37 -103.16 0 -15.91 67.73c-1.08,5.65 -2.05,11.44 -2.77,17.35 -0.73,5.91 -1.08,11.69 -1.08,17.6 0,15.31 3.13,27.23 9.51,35.91 6.39,8.55 15.79,13.74 28.33,15.67l0 35.31 -117.99 0zm634.36 -237.3l0 153.3c0,17.36 2.78,29.53 8.32,36.28 5.54,6.86 15.67,10.96 30.49,12.41l0 35.31 -195.24 0 0 -35.31c14.82,-1.45 25.07,-5.55 30.73,-12.53 5.66,-7 8.44,-19.05 8.44,-36.16l0 -349.98c0,-19.53 -2.65,-32.19 -7.96,-37.97 -5.3,-5.67 -15.66,-9.29 -31.21,-10.74l0 -34.22 199.82 0c49.65,0 88.83,12.18 117.38,36.39 28.69,24.24 42.91,57.38 42.91,99.55 0,30.63 -7.11,55.69 -21.33,75.34 -14.22,19.64 -36.28,34.83 -66.16,45.43 8.67,8.68 17.35,21.82 26.15,39.29 8.67,17.6 20.24,45.55 34.59,83.89 2.29,6.13 5.42,14.58 9.15,25.41 17,46.66 33.87,72.08 50.86,76.3l0 35.31 -120.75 0c-18.57,-32.53 -40.02,-84.6 -64.25,-156.43 -7.58,-22.3 -13.37,-39.18 -17.34,-50.5 -4.47,-11.69 -9.05,-19.77 -13.74,-23.99 -4.71,-4.21 -10.97,-6.38 -18.68,-6.38l-2.18 0zm0 -245.03l0 208.99 6.39 0c28.68,0 48.69,-7.36 59.78,-22.18 11.21,-14.82 16.75,-42.42 16.75,-82.68 0,-40.01 -5.67,-67.37 -17.24,-82.06 -11.56,-14.7 -32.05,-22.07 -61.46,-22.07l-4.22 0zm506.87 2.18l0 387.59c0,20.49 2.53,34.95 7.59,43.27 5.06,8.43 13.49,12.53 25.55,12.53 23.74,0 41.46,-17.23 53.03,-51.82 11.45,-34.59 17.23,-87.26 17.23,-157.89 0,-88.69 -6.75,-150.05 -20.25,-183.79 -13.61,-33.75 -37,-50.62 -70.14,-50.62 -3.74,0 -6.51,0 -8.07,0.13 -1.69,0.11 -3.38,0.35 -4.94,0.6zm-157.88 480.15l0 -36.76c14.82,-0.96 25.06,-4.7 30.73,-11.46 5.66,-6.73 8.43,-18.67 8.43,-35.78l0 -349.98c0,-19.53 -2.65,-32.07 -7.95,-37.61 -5.31,-5.43 -15.55,-8.56 -30.86,-9.29l-0.35 -36.03 153.3 0c78.57,0 137.63,22.66 177.16,68.09 39.53,45.44 59.42,113.42 59.42,203.8 0,81.23 -18.44,142.34 -55.2,183.43 -36.64,41.11 -91.48,61.59 -164.51,61.59l-170.17 0z"/>
 </g>
</svg>
